<?xml version="1.0" encoding="utf-8"?>
<!-- Generator: Adobe Illustrator 26.0.2, SVG Export Plug-In . SVG Version: 6.00 Build 0)  -->
<svg version="1.1" xmlns="http://www.w3.org/2000/svg" xmlns:xlink="http://www.w3.org/1999/xlink" x="0px" y="0px"
	 viewBox="0 0 656 646" style="enable-background:new 0 0 656 646;" xml:space="preserve">
<style type="text/css">
	.st0{fill:#1C1C1C;}
	.st1{fill:none;stroke:#4A4A4A;stroke-miterlimit:10;}
	.st2{fill:none;stroke:#EDEDEF;stroke-width:0.5;stroke-linecap:round;stroke-miterlimit:10;}
	.st3{fill:#FC4646;}
	.st4{font-family:'Sole24Sans-Regular';}
	.st5{font-size:38px;}
	.st6{fill:#83F9F3;}
	.st7{fill:#7E3FE5;}
	.st8{fill:#1C1C1C;stroke:#EDEDEF;stroke-width:0.5;stroke-linecap:round;stroke-miterlimit:10;}
	.st9{fill:none;stroke:#EDEDEF;stroke-width:0.5;stroke-miterlimit:10;}
	.st10{fill:#1C1C1C;stroke:#EDEDEF;stroke-width:0.5;}
	.st11{fill:#EDEDEF;stroke:#1C1C1C;}
	.st12{fill:none;stroke:#EDEDEF;stroke-miterlimit:10;}
</style>
<g id="sagoma_x5F_hover_x5F_usa">
	<path class="st0" d="M372.5,423.3c168.1-172.2-55.9-230.4-55.9-230.4l0.1-178.4C482.6,14.5,617.2,149,617.2,315
		c0,115.4-65.1,215.6-160.6,266L372.5,423.3z"/>
</g>
<g id="sagoma_x5F_hover_x5F_rus">
	<path class="st0" d="M372.5,423.3C91.8,435.6,244.3,216.7,244.3,216.7L138.5,73.5c-74.2,54.7-122.4,142.7-122.4,242
		c0,166,134.5,300.5,300.5,300.5c50.4,0,97.8-12.4,139.5-34.3L372.5,423.3z"/>
</g>
<g id="sagoma_x5F_hover_x5F_altri">
	<path class="st0" d="M317.9,14.7c-66.5,0-127.9,21.5-177.7,58l104.1,144l72.3-23.8L317.9,14.7z"/>
</g>
<g id="Livello_1">
	<g id="gruppo_x5F_russia">
		<g>
			<path class="st1" d="M316.6,550.2c-130,0-235.3-105.3-235.3-235.3c0-36.9,8.6-73.3,25.3-106.2c16.6-32.9,40.8-61.5,70.5-83.3
				l-4.2-5.7c-30.6,22.5-55.5,51.9-72.7,85.8s-26.1,71.4-26,109.4c0,133.9,108.5,242.4,242.4,242.4c39.3,0.1,78-9.4,112.8-27.8
				l-3.4-6.2C392.3,541,354.7,550.2,316.6,550.2z"/>
			<path class="st1" d="M316.6,543.1c-126.1,0-228.2-102.2-228.2-228.2c0-35.8,8.4-71.1,24.5-103s39.6-59.6,68.4-80.8l-4.2-5.7
				c-29.7,21.8-53.9,50.4-70.5,83.3C90,241.6,81.3,278,81.4,314.9c0,129.9,105.3,235.3,235.3,235.3c38.1,0.1,75.7-9.2,109.4-27
				l-3.4-6.2C390,534.2,353.6,543.1,316.6,543.1L316.6,543.1z"/>
			<path class="st1" d="M316.6,536c-122.1,0-221.1-99-221.1-221.1c0-34.7,8.1-68.9,23.8-99.8c15.6-30.9,38.4-57.8,66.3-78.3
				l-4.2-5.7c-28.8,21.2-52.3,48.9-68.4,80.8s-24.6,67.2-24.5,103c0,126.1,102.2,228.2,228.2,228.2c37,0,73.4-8.9,106.1-26.1
				l-3.4-6.2C387.6,527.4,352.4,536,316.6,536z"/>
			<path class="st1" d="M316.6,528.9c-118.2,0-214-95.8-214-214c0-33.6,7.9-66.7,23-96.6s37.1-55.9,64.2-75.8l-4.2-5.7
				c-27.9,20.5-50.6,47.4-66.3,78.3c-15.6,30.9-23.8,65.1-23.7,99.8c0,122.1,99,221.1,221.1,221.1c35.8,0,71.1-8.6,102.7-25.3
				l-3.4-6.2C385.4,520.6,351.2,529,316.6,528.9z"/>
			<path class="st1" d="M316.6,521.8c-114.3,0-207-92.7-207-207c0-32.5,7.6-64.5,22.2-93.4c14.6-29,35.9-54.1,62.1-73.3l-4.2-5.7
				c-27,19.9-49,45.8-64.2,75.8c-15.1,30-23,63-23,96.6c0,118.2,95.8,214,214,214c34.6,0,68.7-8.3,99.4-24.4l-3.4-6.2
				C383,513.8,350.1,521.9,316.6,521.8z"/>
			<path class="st1" d="M316.6,514.7c-110.4,0-199.9-89.5-199.9-199.9c0-31.3,7.3-62.2,21.5-90.2c14.1-28,34.7-52.2,59.9-70.8
				l-4.2-5.7c-26.1,19.2-47.4,44.3-62.1,73.3c-14.6,29-22.3,61-22.2,93.4c0,114.3,92.7,207,207,207c33.5,0,66.4-8.1,96-23.6
				l-3.4-6.2C380.7,507,348.9,514.8,316.6,514.7L316.6,514.7z"/>
			<path class="st1" d="M316.6,507.7c-106.5,0-192.8-86.3-192.8-192.8c0-30.2,7.1-60,20.7-87c13.6-27,33.4-50.4,57.8-68.3l-4.2-5.7
				c-25.3,18.6-45.8,42.8-59.9,70.8s-21.5,58.9-21.5,90.2c0,110.4,89.5,199.9,199.9,199.9c32.3,0,64.1-7.8,92.7-22.8l-3.4-6.2
				C378.4,500.2,347.7,507.7,316.6,507.7L316.6,507.7z"/>
			<path class="st1" d="M316.6,500.6c-102.5,0-185.7-83.1-185.7-185.7c0-29.1,6.8-57.8,20-83.8c13.1-26,32.2-48.5,55.7-65.8
				l-4.2-5.7c-24.4,17.9-44.2,41.3-57.8,68.3s-20.7,56.8-20.7,87c0,106.5,86.3,192.8,192.8,192.8c31.1,0.1,61.8-7.4,89.4-21.8
				l-3.4-6.2C376.1,493.4,346.6,500.6,316.6,500.6L316.6,500.6z"/>
			<path class="st1" d="M130.9,314.9c0,102.5,83.1,185.7,185.7,185.7c30,0,59.5-7.2,86-21.1l-3.4-6.2
				c-25.5,13.3-53.9,20.3-82.7,20.2c-98.7,0-178.6-80-178.6-178.6c0-28,6.5-55.6,19.2-80.6c12.6-25,31-46.7,53.5-63.3l-4.2-5.7
				c-23.5,17.2-42.5,39.8-55.6,65.8C137.7,257,130.9,285.8,130.9,314.9L130.9,314.9z"/>
			<path class="st1" d="M316.6,486.4c-94.7,0-171.5-76.8-171.5-171.5c0-26.9,6.3-53.4,18.4-77.4c12.1-24,29.7-44.8,51.4-60.7
				l-4.2-5.7c-22.6,16.6-40.9,38.3-53.5,63.2c-12.6,25-19.2,52.6-19.2,80.6c0,98.7,80,178.6,178.6,178.6c28.8,0,57.1-6.9,82.7-20.2
				l-3.4-6.2C371.4,479.8,344.2,486.4,316.6,486.4L316.6,486.4z"/>
			<path class="st1" d="M316.6,479.3c-90.8,0-164.5-73.6-164.5-164.5c0-25.8,6-51.2,17.7-74.2s28.5-43,49.3-58.2l-4.2-5.7
				c-21.7,15.9-39.3,36.7-51.4,60.7s-18.4,50.5-18.4,77.4c0,94.7,76.8,171.5,171.5,171.5c27.6,0,54.8-6.6,79.3-19.4l-3.4-6.2
				C369.1,473,343,479.4,316.6,479.3z"/>
			<path class="st1" d="M316.6,472.2c-86.9,0-157.4-70.5-157.4-157.4c0-24.7,5.8-49,16.9-71s27.3-41.1,47.2-55.7l-4.2-5.7
				c-20.8,15.3-37.7,35.2-49.3,58.2s-17.7,48.4-17.7,74.2c0,90.8,73.6,164.5,164.5,164.5c26.5,0,52.5-6.3,76-18.6l-3.4-6.2
				C366.8,466.2,341.9,472.3,316.6,472.2L316.6,472.2z"/>
			<path class="st1" d="M316.6,465.2c-19.7,0-39.3-3.9-57.5-11.4c-18.2-7.6-34.8-18.6-48.8-32.6s-25-30.5-32.6-48.8
				c-7.6-18.2-11.4-37.8-11.4-57.5c0-23.6,5.5-46.8,16.1-67.8s26-39.3,45-53.2l-4.2-5.7c-19.9,14.6-36,33.7-47.2,55.7
				c-11.1,22-16.9,46.3-16.9,71c0,86.9,70.5,157.4,157.4,157.4c25.3,0,50.2-6,72.6-17.7l-3.4-6.2
				C364.5,459.4,340.7,465.2,316.6,465.2L316.6,465.2z"/>
			<path class="st1" d="M316.6,458.1c-18.8,0-37.4-3.7-54.8-10.9c-17.4-7.2-33.2-17.7-46.5-31s-23.8-29.1-31-46.5
				s-10.9-36-10.9-54.8c0-22.4,5.2-44.6,15.4-64.6s24.8-37.4,42.9-50.7l-4.2-5.7c-19,14-34.4,32.2-45,53.2s-16.2,44.3-16.1,67.8
				c0,19.7,3.9,39.3,11.4,57.5c7.6,18.2,18.6,34.8,32.6,48.8c14,14,30.5,25,48.8,32.6s37.8,11.4,57.5,11.4
				c24.1,0,47.9-5.8,69.3-16.9l-3.4-6.2C362.2,452.6,339.6,458.1,316.6,458.1z"/>
			<path class="st1" d="M316.6,451c-36.1,0-70.7-14.3-96.3-39.9c-25.5-25.5-39.9-60.2-39.9-96.3c0-21.3,5-42.4,14.6-61.4
				s23.6-35.6,40.8-48.2l-4.2-5.7c-18.1,13.3-32.8,30.7-42.9,50.7s-15.4,42.2-15.4,64.6c0,18.8,3.7,37.4,10.9,54.8
				s17.7,33.2,31,46.5s29.1,23.8,46.5,31s36,10.9,54.8,10.9c23,0,45.6-5.4,66-16l-3.4-6.2C359.8,445.8,338.4,451,316.6,451
				L316.6,451z"/>
			<path class="st1" d="M316.6,443.9c-34.2,0-67-13.6-91.3-37.8c-24.2-24.2-37.8-57-37.8-91.2c0-20.2,4.7-40.2,13.9-58.2
				c9.1-18,22.4-33.7,38.7-45.7l-4.2-5.7c-17.2,12.6-31.2,29.1-40.8,48.2c-9.6,19-14.6,40.1-14.6,61.4c0,17.9,3.5,35.6,10.4,52.1
				c6.8,16.5,16.9,31.5,29.5,44.2c12.6,12.6,27.7,22.7,44.2,29.5s34.2,10.4,52.1,10.4c21.8,0,43.3-5.2,62.6-15.2l-3.4-6.2
				C357.6,439,337.2,444,316.6,443.9L316.6,443.9z"/>
			<path class="st1" d="M316.6,436.8c-32.3,0-63.4-12.9-86.2-35.7c-22.9-22.9-35.7-53.9-35.7-86.2c0-19.1,4.5-38,13.1-55
				c8.6-17.1,21.1-31.8,36.5-43.2L240,211c-16.3,12-29.5,27.6-38.6,45.7c-9.1,18-13.9,38-13.8,58.2c0,34.2,13.6,67,37.8,91.2
				s57,37.8,91.3,37.8c20.6,0,40.9-4.9,59.2-14.4l-3.4-6.2C355.2,432.2,336.1,436.9,316.6,436.8L316.6,436.8z"/>
			<path class="st2" d="M138.4,73.5C64.2,128.2,16,216.2,16,315.5C16,481.5,150.5,616,316.5,616c50.4,0,97.8-12.4,139.5-34.3"/>
		</g>
	</g>
	<g id="nome_x5F_rus">
		<text transform="matrix(1 0 0 1 279.0779 324.695)" class="st3 st4 st5">RUS</text>
	</g>
	<g id="nome_x5F_usa">
		<text transform="matrix(1 0 0 1 278.5011 324.6945)" class="st6 st4 st5">USA</text>
	</g>
	<g id="nome_x5F_altri">
		<text transform="matrix(1 0 0 1 267.3932 324.695)" class="st7 st4 st5">ALTRI</text>
	</g>
	<g id="gruppo_x5F_usa">
		<g>
			<path class="st1" d="M559,314.9C559,181,450.5,72.5,316.6,72.5h-0.8v7.1h0.8c130,0,235.4,105.3,235.4,235.3
				c0,90.4-51,168.9-125.9,208.3l3.4,6.2C506.4,488.9,559,408,559,314.9z"/>
			<path class="st1" d="M316.6,86.7c126.1,0,228.2,102.2,228.2,228.2c0,87.7-49.5,163.9-122.1,202.1l3.4,6.2
				C500.9,483.8,552,405.3,552,314.9C552,185,446.7,79.6,316.7,79.6h-0.8v7.1H316.6z"/>
			<path class="st1" d="M316.6,93.7c122.1,0,221.1,99,221.1,221.1c0,40.3-11,79.9-31.9,114.4s-50.8,62.7-86.5,81.4l3.4,6.2
				c72.6-38.2,122.1-114.4,122.1-202.1c0-126.1-102.2-228.2-228.2-228.2h-0.8v7.1L316.6,93.7z"/>
			<path class="st1" d="M316.6,100.8c118.2,0,214,95.8,214,214c0,39.1-10.7,77.4-30.9,110.8c-20.2,33.4-49.2,60.7-83.8,78.8l3.4,6.2
				c35.7-18.7,65.6-46.9,86.5-81.4s31.9-74.1,31.9-114.4c0-122.1-99-221.1-221.1-221.1h-0.8v7.1L316.6,100.8L316.6,100.8z"/>
			<path class="st1" d="M316.6,107.9c114.3,0,207,92.7,207,207c0,37.8-10.3,74.8-29.9,107.2c-19.6,32.3-47.6,58.7-81.1,76.2l3.4,6.2
				c34.6-18.1,63.6-45.4,83.8-78.8s30.9-71.7,30.9-110.8c0-118.2-95.8-214-214-214h-0.8v7.1L316.6,107.9z"/>
			<path class="st1" d="M316.6,115c110.4,0,199.9,89.5,199.9,199.9c0,36.5-10,72.3-28.9,103.5s-46,56.7-78.3,73.6l3.4,6.2
				c33.5-17.5,61.5-43.9,81.1-76.2c19.6-32.3,29.9-69.4,29.9-107.2c0-114.3-92.7-207-207-207h-0.8v7.1L316.6,115z"/>
			<path class="st1" d="M316.6,122.1c106.5,0,192.8,86.3,192.8,192.8c0,35.2-9.6,69.8-27.9,99.9c-18.2,30.1-44.4,54.7-75.6,71
				l3.4,6.2c32.3-16.9,59.4-42.4,78.3-73.6s28.9-67,28.9-103.5C516.5,204.5,427,115,316.6,115h-0.8v7.1H316.6z"/>
			<path class="st1" d="M316.6,129.2c102.5,0,185.7,83.1,185.7,185.7c0,33.9-9.3,67.2-26.9,96.2s-42.8,52.7-72.8,68.4l3.4,6.2
				c31.2-16.3,57.3-40.9,75.6-71c18.2-30.1,27.9-64.7,27.9-99.9c0-106.5-86.3-192.8-192.8-192.8h-0.8v7.1L316.6,129.2z"/>
			<path class="st1" d="M316.6,136.2c98.7,0,178.6,80,178.6,178.6c0,32.6-8.9,64.7-25.9,92.6c-16.9,27.9-41.2,50.7-70.1,65.8
				l3.4,6.2c30.1-15.7,55.3-39.4,72.8-68.4c17.6-29,26.9-62.3,26.8-96.2c0-102.5-83.1-185.7-185.7-185.7h-0.8v7.1L316.6,136.2z"/>
			<path class="st1" d="M495.2,314.9c0-98.7-80-178.6-178.6-178.6h-0.8v7.1h0.8c94.7,0,171.5,76.8,171.5,171.5
				c0,31.4-8.6,62.1-24.9,89c-16.3,26.8-39.6,48.7-67.4,63.2l3.4,6.2c28.9-15.1,53.2-37.9,70.1-65.8
				C486.3,379.5,495.3,347.5,495.2,314.9L495.2,314.9z"/>
			<path class="st1" d="M316.6,150.4c90.8,0,164.5,73.6,164.5,164.5c0,30.1-8.2,59.6-23.8,85.3c-15.6,25.7-38,46.7-64.6,60.6
				l3.4,6.2c27.8-14.5,51.1-36.3,67.4-63.2c16.3-26.8,24.9-57.6,24.9-89c0-94.7-76.8-171.5-171.5-171.5h-0.8v7.1L316.6,150.4
				L316.6,150.4z"/>
			<path class="st1" d="M316.6,157.5c86.9,0,157.4,70.5,157.4,157.4c0,28.8-7.9,57.1-22.8,81.7c-14.9,24.6-36.4,44.7-61.9,58
				l3.4,6.2c26.7-13.9,49-34.8,64.6-60.6c15.6-25.7,23.8-55.2,23.8-85.3c0-90.8-73.6-164.5-164.5-164.5h-0.8v7.1L316.6,157.5z"/>
			<path class="st1" d="M316.6,164.6c19.7,0,39.3,3.9,57.5,11.4c18.2,7.6,34.8,18.6,48.8,32.6s25,30.5,32.6,48.8
				c7.6,18.2,11.4,37.8,11.4,57.5c0,27.5-7.5,54.5-21.8,78s-34.8,42.7-59.2,55.4l3.4,6.2c25.6-13.3,47-33.3,61.9-58
				c14.9-24.6,22.8-52.9,22.8-81.7c0-86.9-70.5-157.4-157.4-157.4h-0.8v7.1L316.6,164.6z"/>
			<path class="st1" d="M316.6,171.7c38,0,74.4,15.1,101.3,41.9c26.9,26.9,41.9,63.3,41.9,101.3c0,26.2-7.2,52-20.8,74.4
				c-13.6,22.4-33.2,40.7-56.5,52.7l3.4,6.2c24.4-12.7,44.9-31.8,59.2-55.4c14.3-23.5,21.8-50.5,21.8-78c0-19.7-3.9-39.3-11.4-57.5
				c-7.6-18.2-18.6-34.8-32.6-48.8s-30.5-25-48.8-32.6c-18.2-7.6-37.8-11.4-57.5-11.4h-0.8v7.1L316.6,171.7L316.6,171.7z"/>
			<path class="st1" d="M316.6,178.7c36.1,0,70.7,14.3,96.3,39.9c25.5,25.5,39.9,60.2,39.9,96.3c0,25-6.9,49.4-19.8,70.8
				c-13,21.3-31.6,38.7-53.7,50.1l3.4,6.2c23.3-12.1,42.8-30.3,56.5-52.7c13.6-22.4,20.8-48.2,20.8-74.4c0-18.8-3.7-37.4-10.9-54.8
				c-7.2-17.4-17.7-33.2-31-46.5s-29.1-23.8-46.5-31s-36-10.9-54.8-10.9H316v7.1L316.6,178.7z"/>
			<path class="st1" d="M316.6,185.8c34.2,0,67,13.6,91.2,37.8c24.2,24.2,37.8,57,37.8,91.2c0,23.7-6.5,46.9-18.8,67.1
				s-29.9,36.7-51,47.5l3.4,6.2c22.2-11.5,40.7-28.8,53.7-50.1c13-21.3,19.8-45.8,19.8-70.8c0-36.1-14.3-70.7-39.9-96.3
				c-25.5-25.5-60.2-39.9-96.3-39.9h-0.8v7.1L316.6,185.8z"/>
			<path class="st1" d="M316.6,192.9c32.3,0,63.4,12.9,86.2,35.7c22.9,22.9,35.7,53.9,35.7,86.2c0,22.4-6.2,44.4-17.8,63.5
				c-11.7,19.1-28.4,34.7-48.3,44.9l3.4,6.2c21-10.9,38.7-27.3,51-47.5s18.8-43.4,18.8-67.1c0-34.2-13.6-67-37.8-91.2
				c-24.2-24.2-57-37.8-91.2-37.8h-0.8v7.1H316.6z"/>
			<path class="st2" d="M316.7,14.5C482.6,14.5,617.2,149,617.2,315c0,115.4-65.1,215.6-160.6,266"/>
		</g>
	</g>
	<g id="cerchio_x5F_centrale">
		<path class="st2" d="M314.4,383c37.5,0,68-30.4,68-68c0-37.5-30.4-68-68-68c-37.5,0-68,30.4-68,68
			C246.4,352.5,276.9,383,314.4,383z"/>
		<path class="st2" d="M314.4,383c37.5,0,68-30.4,68-68c0-37.5-30.4-68-68-68c-37.5,0-68,30.4-68,68
			C246.4,352.5,276.9,383,314.4,383z"/>
	</g>
	<g id="pallina_x5F_ruota">
		<path class="st8" d="M254.2,357.1c6.2,0,11.2-5,11.2-11.2s-5-11.2-11.2-11.2s-11.2,5-11.2,11.2S248,357.1,254.2,357.1z"/>
	</g>
	<g id="gruppo_x5F_altri">
		<g>
			<path class="st1" d="M198.1,111.6l-3.5-6.1c-7.4,4.3-14.6,9.1-21.5,14.1l4.2,5.7C183.9,120.4,190.9,115.8,198.1,111.6
				L198.1,111.6z"/>
			<path class="st1" d="M201.6,117.8l-3.5-6.1c-7.2,4.2-14.2,8.8-20.9,13.7l4.2,5.7C187.9,126.3,194.6,121.8,201.6,117.8z"/>
			<path class="st1" d="M205.1,123.9l-3.5-6.1c-7,4.1-13.7,8.5-20.2,13.3l4.2,5.7C191.8,132.1,198.4,127.8,205.1,123.9L205.1,123.9z
				"/>
			<path class="st1" d="M208.7,130l-3.5-6.1c-6.7,3.9-13.3,8.3-19.6,12.9l4.2,5.7C195.8,138,202.1,133.8,208.7,130z"/>
			<path class="st1" d="M212.2,136.1l-3.5-6.1c-6.5,3.8-12.8,8-18.9,12.5l4.2,5.7C199.8,143.8,205.9,139.8,212.2,136.1z"/>
			<path class="st1" d="M215.8,142.3l-3.5-6.1c-6.3,3.7-12.4,7.7-18.3,12l4.2,5.7C203.8,149.7,209.7,145.8,215.8,142.3L215.8,142.3z
				"/>
			<path class="st1" d="M219.3,148.4l-3.5-6.1c-6.1,3.6-12,7.4-17.6,11.6l4.2,5.7C207.8,155.6,213.4,151.8,219.3,148.4z"/>
			<path class="st1" d="M206.5,165.3c5.3-3.9,10.7-7.5,16.3-10.8l-3.5-6.1c-5.9,3.4-11.5,7.2-17,11.2L206.5,165.3z"/>
			<path class="st1" d="M226.4,160.7l-3.5-6.1c-5.6,3.3-11.1,6.9-16.3,10.8l4.2,5.7C215.8,167.3,221,163.8,226.4,160.7L226.4,160.7z
				"/>
			<path class="st1" d="M229.9,166.8l-3.5-6.1c-5.4,3.2-10.6,6.6-15.7,10.3l4.2,5.7C219.7,173.2,224.8,169.9,229.9,166.8
				L229.9,166.8z"/>
			<path class="st1" d="M233.5,172.9l-3.5-6.1c-5.2,3-10.2,6.4-15,9.9l4.2,5.7C223.7,179,228.5,175.8,233.5,172.9L233.5,172.9z"/>
			<path class="st1" d="M237,179.1l-3.5-6.1c-5,2.9-9.8,6.1-14.4,9.5l4.2,5.7C227.7,184.9,232.3,181.9,237,179.1L237,179.1z"/>
			<path class="st1" d="M240.6,185.2l-3.5-6.1c-4.7,2.8-9.3,5.8-13.8,9.1l4.2,5.7C231.7,190.7,236.1,187.9,240.6,185.2z"/>
			<path class="st1" d="M244.1,191.3l-3.5-6.1c-4.5,2.7-8.9,5.5-13.1,8.6l4.2,5.7C235.7,196.6,239.8,193.9,244.1,191.3z"/>
			<path class="st1" d="M247.6,197.5l-3.5-6.1c-4.3,2.5-8.5,5.3-12.5,8.2l4.2,5.7C239.6,202.5,243.6,199.9,247.6,197.5L247.6,197.5z
				"/>
			<path class="st1" d="M251.2,203.6l-3.5-6.1c-4.1,2.4-8,5-11.8,7.8l4.2,5.7C243.6,208.3,247.4,205.9,251.2,203.6z"/>
			<path class="st1" d="M244.3,216.7c3.4-2.5,6.9-4.8,10.5-7l-3.5-6.1c-3.8,2.3-7.6,4.7-11.2,7.4L244.3,216.7z"/>
			<path class="st1" d="M228.1,96.8l-2.6-6.6c-10.7,4.3-21.1,9.4-31,15.3l3.5,6.1C207.7,106,217.8,101,228.1,96.8L228.1,96.8z"/>
			<path class="st1" d="M230.8,103.4l-2.6-6.6c-10.4,4.2-20.4,9.2-30.1,14.8l3.5,6.1C210.9,112.3,220.7,107.5,230.8,103.4
				L230.8,103.4z"/>
			<path class="st1" d="M233.4,109.9l-2.6-6.6c-10.1,4.1-19.8,8.9-29.2,14.4l3.5,6.1C214.2,118.6,223.6,113.9,233.4,109.9
				L233.4,109.9z"/>
			<path class="st1" d="M236,116.5l-2.6-6.6c-9.7,4-19.2,8.6-28.3,13.9l3.5,6.1C217.5,124.9,226.6,120.4,236,116.5L236,116.5z"/>
			<path class="st1" d="M238.7,123.1l-2.6-6.6c-9.4,3.8-18.6,8.3-27.4,13.4l3.5,6.1C220.7,131.1,229.5,126.8,238.7,123.1
				L238.7,123.1z"/>
			<path class="st1" d="M241.3,129.7l-2.6-6.6c-9.1,3.7-18,8.1-26.4,13l3.5,6.1C224,137.5,232.5,133.3,241.3,129.7L241.3,129.7z"/>
			<path class="st1" d="M219.3,148.4c7.9-4.6,16.1-8.7,24.6-12.1l-2.6-6.6c-8.8,3.6-17.3,7.8-25.5,12.6L219.3,148.4z"/>
			<path class="st1" d="M246.6,142.8l-2.6-6.6c-8.5,3.5-16.7,7.5-24.6,12.1l3.5,6.1C230.5,150.1,238.4,146.2,246.6,142.8
				L246.6,142.8z"/>
			<path class="st1" d="M249.2,149.4l-2.6-6.6c-8.2,3.3-16.1,7.2-23.7,11.7l3.5,6.1C233.7,156.4,241.3,152.6,249.2,149.4z"/>
			<path class="st1" d="M251.9,156l-2.6-6.6c-7.9,3.2-15.5,7-22.8,11.3l3.5,6.1C237,162.7,244.3,159.1,251.9,156L251.9,156z"/>
			<path class="st1" d="M254.4,162.6l-2.6-6.6c-7.5,3.1-14.8,6.7-21.9,10.8l3.5,6.1C240.2,169,247.2,165.5,254.4,162.6L254.4,162.6z
				"/>
			<path class="st1" d="M257.1,169.1l-2.6-6.6c-7.2,3-14.2,6.4-21,10.4l3.5,6.1C243.5,175.3,250.2,172,257.1,169.1L257.1,169.1z"/>
			<path class="st1" d="M259.7,175.7l-2.6-6.6c-6.9,2.8-13.6,6.1-20,9.9l3.5,6.1C246.7,181.6,253.1,178.4,259.7,175.7L259.7,175.7z"
				/>
			<path class="st1" d="M262.3,182.3l-2.6-6.6c-6.6,2.7-13,5.9-19.1,9.5l3.5,6.1C250,187.9,256.1,184.9,262.3,182.3L262.3,182.3z"/>
			<path class="st1" d="M265,188.9l-2.6-6.6c-6.3,2.6-12.4,5.6-18.2,9l3.5,6.1C253.2,194.2,259,191.3,265,188.9L265,188.9z"/>
			<path class="st1" d="M251.2,203.6c5.3-3.1,10.7-5.8,16.4-8.1l-2.6-6.6c-6,2.4-11.8,5.3-17.3,8.6L251.2,203.6z"/>
			<path class="st1" d="M270.2,202l-2.6-6.6c-5.6,2.3-11.1,5-16.4,8.1l3.5,6.1C259.7,206.8,264.9,204.2,270.2,202L270.2,202z"/>
			<path class="st1" d="M264.6,85.4l-1.5-6.9c-12.8,2.9-25.4,6.8-37.6,11.8l2.6,6.6C240,92,252.2,88.2,264.6,85.4L264.6,85.4z"/>
			<path class="st1" d="M266.1,92.3l-1.5-6.9c-12.4,2.8-24.6,6.6-36.5,11.4l2.6,6.6C242.2,98.7,254.1,95,266.1,92.3L266.1,92.3z"/>
			<path class="st1" d="M267.7,99.2l-1.6-6.9c-12.1,2.7-23.9,6.4-35.4,11.1l2.6,6.6C244.5,105.4,256,101.8,267.7,99.2L267.7,99.2z"
				/>
			<path class="st1" d="M269.3,106.1l-1.5-6.9c-11.7,2.6-23.2,6.2-34.3,10.8l2.6,6.6C246.8,112.2,257.9,108.7,269.3,106.1
				L269.3,106.1z"/>
			<path class="st1" d="M270.8,113l-1.5-6.9c-11.3,2.6-22.4,6.1-33.2,10.4l2.6,6.6C249.1,118.9,259.8,115.5,270.8,113L270.8,113z"/>
			<path class="st1" d="M241.3,129.7c10.1-4.1,20.5-7.4,31.1-9.8l-1.6-6.9c-11,2.5-21.7,5.8-32.1,10.1L241.3,129.7z"/>
			<path class="st1" d="M273.9,126.9l-1.5-6.9c-10.6,2.4-21,5.7-31.1,9.8l2.6,6.6C253.6,132.3,263.6,129.2,273.9,126.9L273.9,126.9z
				"/>
			<path class="st1" d="M275.4,133.7l-1.5-6.9c-10.2,2.3-20.3,5.5-30,9.4l2.6,6.6C255.9,139,265.6,136,275.4,133.7L275.4,133.7z"/>
			<path class="st1" d="M277,140.7l-1.6-6.9c-9.9,2.2-19.5,5.3-28.9,9.1l2.6,6.6C258.2,145.7,267.5,142.8,277,140.7L277,140.7z"/>
			<path class="st1" d="M278.5,147.6l-1.5-6.9c-9.5,2.2-18.8,5.1-27.8,8.8l2.6,6.6C260.5,152.5,269.4,149.6,278.5,147.6L278.5,147.6
				z"/>
			<path class="st1" d="M280.1,154.5l-1.5-6.9c-9.1,2.1-18.1,4.9-26.7,8.4l2.6,6.6C262.8,159.2,271.3,156.5,280.1,154.5L280.1,154.5
				z"/>
			<path class="st1" d="M281.6,161.4l-1.6-6.9c-8.8,2-17.3,4.7-25.6,8.1l2.6,6.6C265,165.9,273.3,163.3,281.6,161.4z"/>
			<path class="st1" d="M283.2,168.3l-1.5-6.9c-8.4,1.9-16.6,4.5-24.6,7.7l2.6,6.6C267.3,172.6,275.2,170.1,283.2,168.3z"/>
			<path class="st1" d="M284.7,175.2l-1.5-6.9c-8,1.8-15.9,4.3-23.5,7.4l2.6,6.6C269.6,179.3,277.1,177,284.7,175.2z"/>
			<path class="st1" d="M265,188.9c6.9-2.8,14-5.1,21.3-6.7l-1.6-6.9c-7.6,1.7-15.1,4.1-22.4,7.1L265,188.9z"/>
			<path class="st1" d="M287.8,189.1l-1.5-6.9c-7.3,1.6-14.4,3.9-21.3,6.7l2.6,6.6C274.2,192.8,280.9,190.6,287.8,189.1L287.8,189.1
				z"/>
			<path class="st1" d="M289.4,196l-1.5-6.9c-6.9,1.6-13.7,3.7-20.2,6.4l2.6,6.6C276.4,199.5,282.8,197.4,289.4,196L289.4,196z"/>
			<path class="st1" d="M315.8,79.6v-7.1c-1.9,0-3.9,0-5.8,0.1l0.2,7.1C312.1,79.6,313.9,79.6,315.8,79.6z"/>
			<path class="st1" d="M310.4,86.8c1.8-0.1,3.6-0.1,5.4-0.1v-7.1c-1.9,0-3.7,0-5.6,0.1L310.4,86.8z"/>
			<path class="st1" d="M315.8,93.8v-7.1c-1.8,0-3.6,0-5.4,0.1l0.2,7.1C312.3,93.8,314,93.8,315.8,93.8z"/>
			<path class="st1" d="M315.8,100.8v-7.1c-1.8,0-3.5,0-5.3,0.1l0.2,7.1C312.4,100.9,314.1,100.8,315.8,100.8z"/>
			<path class="st1" d="M315.8,107.9v-7.1c-1.7,0-3.4,0-5.1,0.1l0.2,7.1C312.5,107.9,314.1,107.9,315.8,107.9z"/>
			<path class="st1" d="M315.8,115v-7.1c-1.7,0-3.3,0-4.9,0.1l0.2,7.1C312.6,115,314.2,115,315.8,115z"/>
			<path class="st1" d="M315.8,122.1V115c-1.6,0-3.2,0-4.7,0.1l0.2,7.1C312.7,122.1,314.2,122.1,315.8,122.1z"/>
			<path class="st1" d="M315.8,129.2v-7.1c-1.5,0-3.1,0-4.6,0.1l0.2,7.1C312.8,129.2,314.3,129.2,315.8,129.2z"/>
			<path class="st1" d="M315.8,136.2v-7.1c-1.5,0-2.9,0-4.4,0.1l0.2,7.1C312.9,136.3,314.4,136.3,315.8,136.2z"/>
			<path class="st1" d="M315.8,143.3v-7.1c-1.4,0-2.8,0-4.2,0.1l0.2,7.1C313.1,143.4,314.4,143.3,315.8,143.3z"/>
			<path class="st1" d="M311.9,150.5c1.3,0,2.6-0.1,3.9-0.1v-7.1c-1.4,0-2.7,0-4.1,0.1L311.9,150.5z"/>
			<path class="st1" d="M315.7,157.5v-7.1c-1.3,0-2.6,0-3.9,0.1l0.2,7.1C313.3,157.5,314.5,157.5,315.7,157.5z"/>
			<path class="st1" d="M315.7,164.6v-7.1c-1.2,0-2.5,0-3.7,0.1l0.2,7.1C313.4,164.6,314.6,164.6,315.7,164.6z"/>
			<path class="st1" d="M315.7,171.7v-7.1c-1.2,0-2.4,0-3.5,0.1l0.2,7.1C313.5,171.7,314.6,171.7,315.7,171.7z"/>
			<path class="st1" d="M315.7,178.7v-7.1c-1.1,0-2.3,0-3.4,0.1l0.2,7.1C313.6,178.8,314.7,178.8,315.7,178.7z"/>
			<path class="st1" d="M315.7,185.8v-7.1c-1.1,0-2.1,0-3.2,0.1l0.2,7.1C313.7,185.9,314.7,185.8,315.7,185.8z"/>
			<path class="st1" d="M315.7,192.9v-7.1c-1,0-2,0-3,0.1l0.2,7.1C313.8,192.9,314.8,192.9,315.7,192.9z"/>
			<path class="st1" d="M310.2,79.7l-0.2-7.1c-3.5,0.1-7.1,0.3-10.6,0.5l0.5,7.1C303.3,79.9,306.8,79.8,310.2,79.7z"/>
			<path class="st1" d="M310.4,86.8l-0.2-7.1c-3.4,0.1-6.9,0.3-10.3,0.5l0.5,7.1C303.7,87,307,86.8,310.4,86.8z"/>
			<path class="st1" d="M300.9,94.3c3.2-0.2,6.4-0.4,9.6-0.5l-0.2-7.1c-3.4,0.1-6.6,0.3-10,0.5L300.9,94.3z"/>
			<path class="st1" d="M310.7,100.9l-0.2-7.1c-3.2,0.1-6.4,0.2-9.6,0.5l0.5,7.1C304.5,101.2,307.6,101,310.7,100.9z"/>
			<path class="st1" d="M310.9,108l-0.2-7.1c-3.1,0.1-6.2,0.2-9.3,0.5l0.5,7.1C304.8,108.2,307.8,108.1,310.9,108z"/>
			<path class="st1" d="M311,115.1l-0.2-7.1c-3,0.1-6,0.2-9,0.4l0.5,7.1C305.2,115.3,308.2,115.2,311,115.1z"/>
			<path class="st1" d="M311.2,122.2l-0.2-7.1c-2.9,0.1-5.8,0.2-8.7,0.4l0.5,7.1C305.6,122.4,308.4,122.2,311.2,122.2z"/>
			<path class="st1" d="M311.4,129.2l-0.2-7.1c-2.8,0.1-5.6,0.2-8.4,0.4l0.5,7.1C306,129.5,308.7,129.3,311.4,129.2z"/>
			<path class="st1" d="M311.5,136.3l-0.2-7.1c-2.7,0.1-5.4,0.2-8.1,0.4l0.5,7.1C306.4,136.5,308.9,136.4,311.5,136.3z"/>
			<path class="st1" d="M311.7,143.4l-0.2-7.1c-2.6,0.1-5.2,0.2-7.7,0.4l0.5,7.1C306.7,143.6,309.2,143.5,311.7,143.4z"/>
			<path class="st1" d="M311.9,150.5l-0.2-7.1c-2.5,0.1-5,0.2-7.4,0.4l0.5,7.1C307.1,150.7,309.5,150.5,311.9,150.5z"/>
			<path class="st1" d="M305.3,157.9c2.2-0.2,4.5-0.3,6.8-0.3l-0.2-7.1c-2.4,0.1-4.7,0.2-7.1,0.4L305.3,157.9z"/>
			<path class="st1" d="M312.2,164.6l-0.2-7.1c-2.3,0.1-4.5,0.2-6.8,0.3l0.5,7.1C307.9,164.8,310,164.7,312.2,164.6z"/>
			<path class="st1" d="M312.4,171.7l-0.2-7.1c-2.2,0.1-4.3,0.2-6.5,0.3l0.5,7.1C308.3,171.9,310.3,171.8,312.4,171.7z"/>
			<path class="st1" d="M312.5,178.8l-0.2-7.1c-2.1,0.1-4.1,0.2-6.1,0.3l0.5,7.1C308.6,179,310.6,178.9,312.5,178.8z"/>
			<path class="st1" d="M312.7,185.9l-0.2-7.1c-2,0.1-3.9,0.2-5.8,0.3l0.5,7.1C309,186,310.9,185.9,312.7,185.9z"/>
			<path class="st1" d="M312.9,193l-0.2-7.1c-1.8,0.1-3.7,0.1-5.5,0.3l0.5,7.1C309.4,193.1,311.1,193,312.9,193z"/>
			<path class="st1" d="M281.8,82.1l-1-7c-6,0.9-11.9,2-17.7,3.3l1.5,6.9C270.3,84.1,276,83,281.8,82.1z"/>
			<path class="st1" d="M282.8,89.2l-1-7c-5.8,0.9-11.5,1.9-17.2,3.2l1.5,6.9C271.6,91,277.2,90,282.8,89.2z"/>
			<path class="st1" d="M283.8,96.2l-1-7c-5.6,0.8-11.2,1.9-16.7,3.1l1.6,6.9C273,98,278.4,97,283.8,96.2z"/>
			<path class="st1" d="M284.9,103.2l-1-7c-5.4,0.8-10.8,1.8-16.1,3l1.5,6.9C274.4,104.9,279.6,104,284.9,103.2z"/>
			<path class="st1" d="M270.8,113c5-1.1,10-2.1,15.1-2.8l-1-7c-5.3,0.8-10.5,1.8-15.6,2.9L270.8,113z"/>
			<path class="st1" d="M286.9,117.2l-1-7c-5.1,0.8-10.1,1.7-15.1,2.8l1.6,6.9C277.1,118.8,282,117.9,286.9,117.2z"/>
			<path class="st1" d="M288,124.2l-1-7c-4.9,0.7-9.8,1.7-14.6,2.7l1.5,6.9C278.5,125.8,283.2,124.9,288,124.2z"/>
			<path class="st1" d="M289,131.2l-1-7c-4.7,0.7-9.4,1.6-14.1,2.6l1.5,6.9C279.9,132.7,284.4,131.9,289,131.2z"/>
			<path class="st1" d="M290,138.2l-1-7c-4.6,0.7-9.1,1.5-13.5,2.5l1.6,6.9C281.3,139.7,285.6,138.9,290,138.2z"/>
			<path class="st1" d="M291,145.2l-1-7c-4.4,0.7-8.7,1.5-13,2.4l1.5,6.9C282.6,146.6,286.8,145.9,291,145.2z"/>
			<path class="st1" d="M292.1,152.2l-1-7c-4.2,0.6-8.4,1.4-12.5,2.3l1.5,6.9C284,153.6,288,152.8,292.1,152.2z"/>
			<path class="st1" d="M293.1,159.2l-1-7c-4,0.6-8,1.4-12,2.3l1.5,6.9C285.4,160.5,289.2,159.8,293.1,159.2z"/>
			<path class="st1" d="M294.1,166.2l-1-7c-3.9,0.6-7.7,1.3-11.5,2.2l1.6,6.9C286.8,167.5,290.4,166.8,294.1,166.2z"/>
			<path class="st1" d="M284.7,175.2c3.4-0.8,6.9-1.4,10.4-2l-1-7c-3.7,0.6-7.3,1.2-10.9,2.1L284.7,175.2z"/>
			<path class="st1" d="M296.2,180.3l-1-7c-3.5,0.5-7,1.2-10.4,2l1.5,6.9C289.5,181.4,292.8,180.8,296.2,180.3z"/>
			<path class="st1" d="M297.2,187.3l-1-7c-3.4,0.5-6.7,1.1-9.9,1.9l1.6,6.9C290.9,188.3,294.1,187.7,297.2,187.3z"/>
			<path class="st1" d="M298.2,194.3l-1-7c-3.2,0.5-6.3,1.1-9.4,1.8l1.5,6.9C292.3,195.3,295.2,194.7,298.2,194.3z"/>
			<path class="st1" d="M299.9,80.2l-0.5-7.1c-6.3,0.4-12.5,1.1-18.7,2l1,7C287.8,81.3,293.8,80.6,299.9,80.2z"/>
			<path class="st1" d="M300.4,87.2l-0.5-7.1c-6.1,0.4-12.2,1.1-18.2,2l1,7C288.6,88.3,294.5,87.7,300.4,87.2z"/>
			<path class="st1" d="M300.9,94.3l-0.5-7.1c-5.9,0.4-11.8,1.1-17.6,1.9l1,7C289.4,95.3,295.1,94.7,300.9,94.3z"/>
			<path class="st1" d="M284.9,103.2c5.4-0.8,11-1.4,16.5-1.8l-0.5-7.1c-5.7,0.4-11.4,1-17.1,1.9L284.9,103.2z"/>
			<path class="st1" d="M301.9,108.4l-0.5-7.1c-5.6,0.4-11.1,1-16.5,1.8l1,7C291.2,109.4,296.5,108.8,301.9,108.4z"/>
			<path class="st1" d="M302.4,115.5l-0.5-7.1c-5.4,0.4-10.7,1-16,1.7l1,7C292,116.4,297.1,115.9,302.4,115.5z"/>
			<path class="st1" d="M302.8,122.6l-0.5-7.1c-5.2,0.4-10.3,0.9-15.4,1.7l1,7C292.9,123.5,297.8,122.9,302.8,122.6z"/>
			<path class="st1" d="M303.3,129.6l-0.5-7.1c-5,0.4-10,0.9-14.9,1.6l1,7C293.7,130.5,298.5,130,303.3,129.6z"/>
			<path class="st1" d="M303.8,136.7l-0.5-7.1c-4.8,0.3-9.6,0.9-14.3,1.6l1,7C294.6,137.5,299.2,137,303.8,136.7z"/>
			<path class="st1" d="M304.3,143.8l-0.5-7.1c-4.6,0.3-9.2,0.8-13.8,1.5l1,7C295.4,144.6,299.8,144.1,304.3,143.8z"/>
			<path class="st1" d="M304.8,150.8l-0.5-7.1c-4.5,0.3-8.9,0.8-13.3,1.5l1,7C296.3,151.6,300.5,151.1,304.8,150.8z"/>
			<path class="st1" d="M305.3,157.9l-0.5-7.1c-4.3,0.3-8.5,0.8-12.7,1.4l1,7C297.1,158.6,301.2,158.2,305.3,157.9z"/>
			<path class="st1" d="M294.1,166.2c3.8-0.6,7.7-1,11.6-1.3l-0.5-7.1c-4.1,0.3-8.2,0.7-12.2,1.3L294.1,166.2z"/>
			<path class="st1" d="M306.2,172l-0.5-7.1c-3.9,0.3-7.8,0.7-11.6,1.3l1,7C298.8,172.7,302.5,172.3,306.2,172z"/>
			<path class="st1" d="M306.7,179.1l-0.5-7.1c-3.7,0.3-7.4,0.7-11.1,1.2l1,7C299.7,179.7,303.2,179.4,306.7,179.1z"/>
			<path class="st1" d="M307.2,186.2l-0.5-7.1c-3.5,0.3-7.1,0.6-10.5,1.2l1,7C300.5,186.8,303.8,186.4,307.2,186.2z"/>
			<path class="st1" d="M307.7,193.3l-0.5-7.1c-3.4,0.2-6.7,0.6-10,1.1l1,7C301.4,193.8,304.5,193.5,307.7,193.3z"/>
			<path class="st2" d="M316.7,14.5c-66.5,0-127.9,21.5-177.7,58"/>
		</g>
	</g>
	<g id="asta_x5F_3_x5F_sottile">
		<g>
			<path class="st9" d="M315.8,71.6l-0.4-57.2"/>
			<circle class="st10" cx="315.4" cy="14.5" r="4"/>
		</g>
	</g>
	<g id="asta_x5F_2_x5F_sottile">
		<path class="st2" d="M429.7,530.5l26.9,50.4"/>
		<circle class="st11" cx="456.6" cy="580.9" r="4"/>
	</g>
	<g id="asta_x5F_1_x5F_sottile">
		<g>
			<path class="st8" d="M173.4,120.4l-35.3-48.7"/>
			<circle class="st8" cx="138.1" cy="72.4" r="4"/>
		</g>
	</g>
	<g id="aste_x5F_altri">
		<g>
			<path class="st12" d="M254.6,209.5l-60.3-104.2"/>
			<circle class="st11" cx="194.4" cy="105.2" r="6.4"/>
			<path class="st12" d="M270.2,202L225.5,90.2"/>
			<circle class="st11" cx="225.5" cy="90.1" r="6.4"/>
			<path class="st12" d="M289.4,196L263,78.4"/>
			<circle class="st11" cx="263.3" cy="78.3" r="6.4"/>
			<path class="st12" d="M298.3,194.3L280.8,75.1"/>
			<circle class="st11" cx="280.9" cy="75" r="6.4"/>
			<path class="st12" d="M307.7,193.2l-8.2-120.1"/>
			<circle class="st11" cx="299.4" cy="72.4" r="6.4"/>
			<path class="st12" d="M312.9,193L310,72.6"/>
			<circle class="st11" cx="310.4" cy="71.6" r="6.4"/>
		</g>
	</g>
	<g id="asta_x5F_3">
		<g>
			<path class="st12" d="M315.8,193.1V72"/>
			<circle class="st11" cx="316.2" cy="71.6" r="6.4"/>
		</g>
	</g>
	<g id="asta_x5F_2">
		<g>
			<path class="st12" d="M372.6,422.9l57.1,107.6"/>
			<circle class="st11" cx="429.7" cy="529.7" r="6.4"/>
		</g>
	</g>
	<g id="asta_x5F_1">
		<g>
			<path class="st12" d="M244,217l-72.3-99.2"/>
			<circle class="st11" cx="171.7" cy="118.7" r="6.4"/>
		</g>
	</g>
</g>
</svg>
