<?xml version="1.0" encoding="utf-8"?>
<!-- Generator: Adobe Illustrator 25.4.1, SVG Export Plug-In . SVG Version: 6.00 Build 0)  -->
<svg version="1.1" id="Livello_1" xmlns="http://www.w3.org/2000/svg" xmlns:xlink="http://www.w3.org/1999/xlink" x="0px" y="0px"
	 viewBox="0 0 912 711.8" style="enable-background:new 0 0 912 711.8;" xml:space="preserve">
<!-- <style type="text/css">
	.st0{fill:none;stroke:#83F9F3;stroke-width:1.5;stroke-miterlimit:10;}
	.st1{fill:#83F9F3;}
	.st2{font-family:'Sole24SerifDisplay-Regular';}
	.st3{font-size:24px;}
	.st4{fill:none;stroke:#83F9F3;}
	.st5{fill:none;}
	.st6{fill:#EDEDEF;}
	.st7{font-family:'Sole24Sans-Regular';}
	.st8{font-size:16px;}
	.st9{font-size:14px;}
	.st10{fill:#FF514B;}
	.st11{fill:none;stroke:#FF514B;stroke-width:1.5;stroke-miterlimit:10;}
	.st12{fill:none;stroke:#FF514B;}
	.st13{fill:none;stroke:#7E3FE6;}
	.st14{fill:none;stroke:#7E3FE6;stroke-width:2;}
	.st15{fill:#7E3FE6;}
	.st16{enable-background:new;}
	.st17{opacity:0.2;fill:none;stroke:#EDEDEF;enable-background:new;}
	.st18{opacity:0.2;fill:none;stroke:#EDEDEF;stroke-width:1.5;enable-background:new;}
	.st19{fill:none;stroke:#EDEDEF;stroke-width:0.5;}
	.st20{fill:none;stroke:#83F9F3;stroke-miterlimit:10;}
	.st21{opacity:0.7;fill:none;stroke:#FC4646;enable-background:new;}
</style> -->
<g id="USA">
	<path id="Grafico_USA" class="st0" d="M82.3,583.5c3.5,0,6.8,0,10.3,0s7.1,0,10.6,0s7.1-0.1,10.6-0.3c3.5-0.2,7.1-0.7,10.6-1
		c3.6-0.4,7.1-0.7,10.6-1.1c3.6-0.2,7.1-0.6,10.6-1.2c3.5-0.8,7.1-2.4,10.6-3.5c3.6-1,7.1-1.6,10.6-2.8c3.8-1.3,7.3-2.9,10.6-4.6
		c4-1.8,7.5-3.9,10.6-6.3c4.1-3.4,7.7-7.1,10.6-10.9c3.6-4.5,7.1-10.7,10.6-16c3.6-5.3,7.1-5.8,10.6-15.6
		c3.5-9.7,7.1-26.5,10.6-42.7s7.1-40.4,10.6-54.7c3.5-14.3,7.1-21.1,10.6-31c3.5-10,7.1-20.1,10.6-28.6c2.9-7.6,6.4-15,10.6-22.3
		c3.5-5.6,7.1-7.1,10.6-11.5c3.5-4.3,7.1-14.2,10.6-14.5c3.6-0.2,7.1-0.1,10.6-0.3s7.1-0.7,10.6-0.7c3.6,0,7.1,9.3,10.6,14.6
		c3.5,5.3,7.1,12.2,10.6,17.3c3.6,5.1,7.1,12.3,10.6,13.3c3.3,1,6.9,1.5,10.6,1.5c3.5,0,7.1-3.1,10.6-5.9s7.1-8.5,10.6-11.4
		c3.5-2.9,7.1-6,10.6-6s7.1,5,10.6,8.8c3.5,3.8,7.1,11.7,10.6,13.9s7.1,1.1,10.6,3.2c3.6,2.1,7.1,8.1,10.6,9.7
		c3.1,1.4,6.8,2.3,10.6,2.4c3.5,0.2,7.1,0.1,10.6,0.3s7.1,6,10.6,7.8c2.9,1.6,6.7,2.6,10.6,2.8c3.5,0,7.1-2.8,10.6-3.6
		c3.4-0.9,7-1.3,10.6-1.3c3.6,0,7.1,0.6,10.6,0.8c3.6,0.2,7.1,0.4,10.6,0.4s7.1-2.3,10.6-2.3s7.1,1.2,10.6,3.2
		c3.6,2,7.1,5.9,10.6,8.5s7.1,2.5,10.6,7.1c3.5,4.6,7.1,9.5,10.6,20.6s7.1,34.9,10.6,45.7c3.5,10.7,7.1,15.9,10.6,19
		c1.2,1.2,2.7,2.2,4.5,3c1.8,0.8,3.9,1.3,6.1,1.6c3.5,0.4,7,0.7,10.6,0.7s7.1-0.9,10.6-0.9c3.6,0.1,7.1,0.4,10.6,0.9
		c3.5,0.4,7.1,1.2,10.6,1.5s7.1,0.2,10.6,0.4s7.1,0.7,10.6,0.9c3.5,0.2,7.1,0.2,10.6,0.4c3.5,0.1,7.1,0.3,10.6,0.6
		c4.2,0.4,7.9,1.7,10.6,3.7c3.5,2.6,7,11.4,10.6,12.6s7.1,0.8,10.6,1.8c3.6,1,7.1,1.5,10.6,4.4c3.5,2.9,7.1,16,10.6,18.5
		s7.1,2.9,10.6,3.8c3.4,0.7,7,1.2,10.6,1.4c3.5,0.2,7.1,0.1,10.6,0.4c3.5,0.2,7.1,1.3,10.6,1.5c3.5,0.1,7.1,0,10.6,0.1
		c3.5,0.1,7.1,0.4,10.6,0.7c3.6,0.2,7.1,0.4,10.6,0.7c3.6,0.2,7.2,0.6,10.6,1.3c3.5,0.9,7.1,3.7,10.6,4.8c3.3,1,7,1.5,10.6,1.7
		c3.5,0.2,7.1,0.3,10.6,0.3s7.1-0.2,10.6-0.2s7.1,0.4,10.6,0.5c3.5,0.1,7.1,0.4,10.6,0.4l12.1,0"/>
	<text id="Titolo_USA" transform="matrix(1 0 0 1 0.2258 56.4342)" class="st1 st2 st3">USA</text>
	<g id="Didascalia_USA">
		<path id="Linea_didascalia_USA" class="st4" d="M82.6,302.8h233.2"/>
		<rect x="82.6" y="277.4" class="st5" width="181.9" height="95.8"/>
		<text transform="matrix(1 0 0 1 82.5513 288.6162)" class="st6 st7 st8">1967</text>
		<text transform="matrix(1 0 0 1 82.5513 327.0162)" class="st6 st7 st8">L’accordo per disciplinare</text>
		<text transform="matrix(1 0 0 1 82.5513 346.2162)" class="st6 st7 st8">l’uso di armamenti</text>
		<text transform="matrix(1 0 0 1 82.5513 365.4162)" class="st6 st7 st8">nucleari</text>
	</g>
	<text transform="matrix(1 0 0 1 858.4875 312.6004)" class="st1 st7 st9">31.000</text>
</g>

<g id="RUSSIA">
	<text id="Titolo_Russia" transform="matrix(1 0 0 1 -5.723915e-02 56.4348)" class="st10 st2 st3">Russia</text>
	<path id="Grafico_RU" class="st11" d="M122.8,584.9c3.5,0,7.1,0,10.6,0s7.1-0.1,10.6-0.2c3.5-0.1,7.1-0.1,10.7-0.2
		c3.6-0.1,7.1-0.5,10.7-0.6c3.5-0.1,7.1-0.1,10.7-0.2c3.5-0.1,7.1-0.1,10.6-0.4c3.6-0.5,7.2-1.2,10.6-2c3.6-0.7,7.1-1.4,10.7-2
		c3.6-0.6,7-1.2,10.7-1.8s7.1-0.5,10.6-1.6c3.9-1.3,7.5-3,10.7-5c3.5-2.1,7.1-5,10.7-7.4c3.5-2.5,7.1-4.8,10.7-7.3
		c3.5-2.6,7.1-5.1,10.6-7.8c3.5-2.7,7.1-5.7,10.6-8.5c3.5-2.7,7.1-5.1,10.7-7.8c3.8-2.6,7.3-5.3,10.6-8.2c3.5-3.2,7.1-7.8,10.7-11.3
		c3.6-3.4,7.1-6.2,10.6-9.4c3.5-3.2,7.1-7,10.7-10.2c3.6-3.2,7.1-5.4,10.6-9.2c3.5-3.7,7.1-9.2,10.6-13.3c3.5-4.1,7.1-7.6,10.6-11.4
		s7.1-7.1,10.7-11c3.5-3.8,7.1-7.3,10.6-12.1c4.2-5.4,7.7-11,10.7-16.8c3.5-7,7.1-18,10.6-25.2c3.5-7.2,7.1-12.5,10.7-18.3
		c3.6-5.8,7.1-10.6,10.6-16.2c3.5-5.7,7.1-11.5,10.6-18s7.1-15.1,10.6-20.8c3.5-5.6,7.1-8.7,10.7-12.8c3.5-4,7.1-7.3,10.7-11.5
		s7.1-9.4,10.6-14.2s7.1-9.6,10.6-14.5c3.5-4.9,7.1-10.3,10.7-15.1c3.6-4.8,7.1-13.6,10.6-13.6s7.1,12.5,10.6,17.7
		c3.5,5.2,7.1,9.2,10.7,13.5c3.6,4.3,7.1,7.4,10.7,12.6c4.4,5.8,8,11.8,10.7,18.1c3.5,8.5,7.1,24,10.6,33s7.1,14,10.6,20.8
		c3.5,6.8,7.1,12.3,10.7,20.1c3.6,7.8,7.1,17.5,10.6,26.4c3.5,8.9,7.1,19.5,10.6,27.2c3.5,7.8,7.1,16.4,10.7,19.3
		c3.5,2.9,7.1,2,10.7,4.3c3.6,2.3,7.1,6,10.6,9.3s7.1,7,10.6,10.1s7.1,5.7,10.6,8.6c3.5,2.9,7.1,5.9,10.7,9l10.6,9l10.7,9l10.6,9
		c3.5,3,7.1,7,10.7,9c3.6,2,7.1,2.1,10.6,3.1l10.6,3.1c3.5,1,7.1,2,10.6,3.1c3.5,1.1,7.1,2.4,10.7,3.5c3.5,1,7.1,1.7,10.6,2.7
		c3.5,1,7.1,2.4,10.7,3.1c3.5,0.5,7.1,0.8,10.6,0.9c3.6,0.3,7.1,0.7,10.7,0.9c3.6,0.2,7.1,0.2,10.6,0.4s7.1,0.8,10.6,0.9
		s7.1,0,10.6,0.1s7.1,1.6,10.7,1.6c3.5,0,7.1-0.4,10.7-0.4s7.1,0.1,10.6,0.2s7.1,0.2,10.6,0.2s7.1-1.8,10.5-1.8s7.2,0.1,10.7,0.2"/>
	<g id="Didascalia_RU">
		<text transform="matrix(0.9998 2.236000e-02 -2.236000e-02 0.9998 671.8527 211.0373)" class="st6 st7 st8">1986</text>
		<text transform="matrix(0.9998 2.236000e-02 -2.236000e-02 0.9998 670.9941 249.4277)" class="st6 st7 st8">La catastrofe</text>
		<text transform="matrix(0.9998 2.236000e-02 -2.236000e-02 0.9998 670.5648 268.6229)" class="st6 st7 st8">di Chernobyl</text>
		<path id="Linea_didascalia_RU" class="st12" d="M517.1,227.3h246.2"/>
	</g>
	<text transform="matrix(1 0 0 1 856.4432 242.4082)" class="st10 st7 st9">38.000</text>
</g>

<g id="Altri_stati">
	<g id="Didascalia_Altri_Stati">
		<path class="st13" d="M851.3,577.6v-176"/>
		<path class="st13" d="M851.3,402.2l-15.4,0.1l-15.4,0.1l-15.4,0.1l-15.4,0.1c-5.1,0-10.3,0.2-15.4,0.2c-5.1,0-10.3-0.3-15.5-0.3
			h-15.4"/>
		<path class="st13" d="M156.6,186.6v396"/>
		<path class="st13" d="M274.6,388.6v194"/>
		<!-- <rect x="171.6" y="186.6" class="st5" width="207.6" height="95.9"/> -->
		<text transform="matrix(1 0 0 1 171.6146 197.8897)" class="st6 st7 st8">Regno Unito - Anni ‘50</text>
		<text transform="matrix(1 0 0 1 171.6146 236.2897)" class="st6 st7 st8">La Guerra Fredda</text>
		<text transform="matrix(1 0 0 1 171.6146 255.4897)" class="st6 st7 st8">e le strategie</text>
		<text transform="matrix(1 0 0 1 171.6146 274.6898)" class="st6 st7 st8">di deterrenza nucleari</text>
		<!-- <rect x="289.4" y="389.4" class="st5" width="233.7" height="54.5"/> -->
		<text transform="matrix(1 0 0 1 289.3758 400.6688)" class="st6 st7 st8">Francia - Anni ‘60</text>
		<text transform="matrix(1 0 0 1 289.3758 439.0688)" class="st6 st7 st8">Lo sviluppo della triade nucleare</text>
		<!-- <rect x="580.3" y="378.7" class="st5" width="180.5" height="115.5"/> -->
		<text transform="matrix(1 0 0 1 580.295 389.9517)" class="st6 st7 st8">Corea del Nord - 2012</text>
		<text transform="matrix(1 0 0 1 580.295 428.3517)" class="st6 st7 st8">Kim Jong-un consolida</text>
		<text transform="matrix(1 0 0 1 580.295 447.5517)" class="st6 st7 st8">la sua posizione</text>
		<text transform="matrix(1 0 0 1 580.295 466.7517)" class="st6 st7 st8">di comandante supremo</text>
		<text transform="matrix(1 0 0 1 580.295 485.9517)" class="st6 st7 st8">delle forze armate</text>
	</g>
	<g id="Grafico_Altri_Stati">
		<path id="Grafico_AltriStati7" class="st14" d="M274.6,583c3.6,0,7.2,0,10.8,0c3.6,0,7.2-0.1,10.8-0.1s7.2,0,10.8-0.1
			s7.2-0.1,10.8-0.1c3.6-0.1,7.2-0.1,10.8-0.1c3.6-0.1,7.2-0.1,10.8-0.2l10.8-0.2c3.6-0.1,7.2-0.2,10.8-0.2
			c3.6-0.1,7.2-0.1,10.8-0.2c3.6-0.1,7.2-0.1,10.8-0.2c3.6-0.1,7.2-0.1,10.8-0.1h21.6c3.6,0,7.2-0.1,10.8-0.1l10.8-0.1
			c3.6,0,7.2-0.1,10.8-0.1l10.8-0.1c3.6,0,7.2-0.1,10.8-0.1h10.8h10.8h10.8h10.8h10.8h10.8h10.8h10.4h10.8h53.9c3.6,0,7.2,0,10.8,0
			h32.3c3.6,0,7.2,0,10.8,0h75.5c3.6,0,7.2-0.1,10.8-0.1H792c3.6,0,7.2-0.1,10.8-0.1h10.7c3.6,0,7.2-0.1,10.8-0.1h10.8
			c3.6,0,7.2-0.1,10.8-0.1l10.8-0.1c3.6,0,7.2,0,10.8-0.1s7.2-0.5,10.8-0.5h21.5"/>
		<path id="Grafico_AltriStati6" class="st14" d="M274.6,583c3.6-0.1,7.2-0.2,10.8-0.2c3.6,0,7.2-0.1,10.8-0.1h43.1
			c3.6,0,7.2,0,10.8-0.1c3.6-0.1,7.2-0.1,10.8-0.2c3.6-0.1,7.2-0.3,10.8-0.4c3.6-0.1,7.2-0.1,10.8-0.2c3.6-0.1,7.2-0.3,10.8-0.4
			c3.6-0.1,7.2-0.1,10.8-0.2c3.6-0.1,7.2-0.1,10.8-0.1c3.6,0,7.2-0.1,10.8-0.1h10.7c3.6,0,7.2-0.1,10.8-0.1s7.2-0.2,10.8-0.2h10.8
			c3.6,0,7.2-0.1,10.8-0.1h10.8c3.6,0,7.2-0.7,10.8-0.7c3.6,0,7.2,0.1,10.8,0.1c3.6,0,7.2-0.5,10.8-0.5s7.2,0.1,10.8,0.1h10.8
			c3.6,0,7.2-0.6,10.8-0.8c3.6-0.2,7.2-0.3,10.8-0.3h10.8c3.6,0,7.2,0.1,10.8,0.1s7.2,0.1,10.8,0.1c3.6,0.1,7.2,0,10.8,0.1
			s7.2,0.4,10.8,0.4h32c3.6,0,7.2-0.2,10.8-0.2s7.2,1,10.8,1h64.7c3.6,0,7.2,0.4,10.8,0.4h118.6c3.6,0,7.2,0.1,10.8,0.1h21.5"/>
		<path id="Grafico_AltriStati5" class="st14" d="M156.1,583h10.8c3.6,0,7.2,0,10.8-0.1c3.6-0.1,7.2-0.3,10.8-0.4
			c3.6-0.1,7.2-0.1,10.8-0.1H210c3.6,0,7.2-0.1,10.8-0.2c3.6-0.1,7.2-0.1,10.8-0.2c3.6-0.1,7.2-0.3,10.8-0.4
			c3.6-0.1,7.2-0.4,10.8-0.5c3.6-0.1,7.2-0.3,10.8-0.4c3.6-0.1,7.2-0.1,10.8-0.1h10.8c3.6,0,7.2,0,10.8-0.1s7.2-0.6,10.8-0.6
			c3.6,0,7.2,0.2,10.8,0.3c3.6,0.1,7.2,0.1,10.8,0.1c3.6,0,7.2-0.4,10.8-0.6c3.6-0.2,7.2-0.2,10.8-0.3s7.2,0,10.8-0.1
			c3.6-0.1,7.2-0.7,10.8-0.7h85.9c3.6,0,7.2,1,10.8,1c3.6,0,7.2,0,10.8,0.1c3.6,0.1,7.2,0.2,10.8,0.2h75.5c3.6,0,7.2,0.9,10.8,0.9
			H598c3.6,0,7.2,0.1,10.8,0.1c3.6,0.1,7.2,0.2,10.8,0.2h10.8c3.6,0,7.2-0.3,10.8-0.3h10.5c3.6,0,7.2-0.4,10.8-0.4h53.9
			c3.6,0,7.2,0.5,10.8,0.5h75.5c3.6,0,7.2,0.1,10.8,0.1c3.6,0,7.2,0.1,10.8,0.1h21.6c3.6,0,7.2,0,10.8,0.1l10.8,0.1l10.8,0.1
			c3.6,0,7.2,0.1,10.8,0.1h10.8"/>
		<path id="Grafico_AltriStati4" class="st13" d="M641.2,583l10.8-0.1l10.8-0.1l10.8-0.1l10.8-0.1l10.8-0.1l10.8-0.1l10.8-0.1
			l10.8-0.1l10.8-0.1l10.8-0.1l10.8-0.1l10.8-0.1l10.8-0.1l10.8-0.1l10.8-0.1l10.8-0.1l10.8-0.1l10.8-0.1c3.6,0,7.2-0.1,10.8-0.1
			c3.6,0,7.2-0.1,10.8-0.1h10.8c3.6,0,7.2-0.1,10.8-0.1s7.2-0.1,10.8-0.1h10.3"/>
		<path id="Grafico_AltriStati3" class="st13" d="M641.2,583l10.8-0.1l10.8-0.1l10.8-0.1l10.8-0.1l10.8-0.1l10.8-0.1l10.8-0.1
			l10.8-0.1l10.8-0.1l10.8-0.1l10.8-0.1l10.8-0.1l10.8-0.1l10.8-0.1c3.6,0,7.2-0.1,10.8-0.1c3.6,0,7.2,0.1,10.8,0.1
			s7.2-0.1,10.8-0.1l10.8-0.1l10.8-0.1c3.6,0,7.2-0.1,10.8-0.1h10.8c3.6,0,7.2-0.1,10.8-0.1s7.2-0.1,10.8-0.1h10.3"/>
		<path id="Grafico_AltriStati2" class="st14" d="M307,583h10.8h10.8h10.8h10.8h10.8h10.8h10.8h10.8h10.6h10.8h10.8h10.8h10.8
			h10.8h10.8h10.8h10.8h10.8h10.8h10.8h10.8h10.8h10.6h10.8h10.8h10.8h10.8h10.8h10.8h10.8h10.8h10.6h10.8h10.8h10.8h10.8h10.8
			h161.7c3.6,0,7.2-0.1,10.8-0.1h21.5"/>
		<path id="Grafico_AltriStati1" class="st14" d="M468.6,583h75.5c3.6,0,7.2,0.1,10.8,0.1h344.9"/>
	</g>
	<text id="Titolo_Altri" transform="matrix(1 0 0 1 0.8257 56.4348)" class="st15 st2 st3">Altri</text>
</g>

<g id="Base_permanente">
	<g id="Didascalia_Testate_Globali">
		<text transform="matrix(1 0 0 1 691.1413 46.9225)" class="st16"><tspan x="0" y="0" class="st6 st7 st8">Testate</tspan><tspan x="0" y="19.2" class="st6 st7 st8">nucleari</tspan><tspan x="0" y="38.4" class="st6 st7 st8">globali</tspan></text>
		<path id="Linea_didascalia_Globali" class="st17" d="M498.4,36.7h181.2"/>
	</g>
	<path id="Grafico_Totale" class="st18" d="M82.3,583.1c26.4,0,26.6-0.2,45.4-2.7c26.4,0,26.4-19.9,52.8-19.9
		S206.9,409,233.3,409s26.4-147.1,52.8-147.1s26.4-5.6,52.8-5.6s26.4-80.3,52.8-80.3s26.4-69.3,52.8-69.3s26.2-61.3,52.6-61.3
		s26.4,63.4,52.8,63.4s26.4,217,52.8,217c26.4,0,26.4,53.5,52.8,53.5s26.4,63.7,52.8,63.7s26.4,43.5,52.8,43.5
		c26.4,0,26.4,9.6,52.8,9.6c26.4,0,59.4,8.9,85.8,8.9"/>
	<text id="_x32_020" transform="matrix(1 0 0 1 868.5093 630.3168)" class="st6 st7 st9">2020</text>
	<path id="Linea_di_base" class="st19" d="M82.3,587.7h817.8"/>
	<text id="_x31_945" transform="matrix(1 0 0 1 81.9841 630.3168)" class="st6 st7 st9">1945</text>

	<g id="Pallini">
		<g id="Pallino_USA">
			<circle id="Cerchio_USA" class="st20" cx="183.3" cy="662.7" r="31.3"/>
			<text id="USA" transform="matrix(1 0 0 1 170.2227 666.2626)" class="st6 st7 st9">USA</text>
		</g>
		<g id="Pallino_RU">
			<circle id="Cerchio_RU" class="st21" cx="261.1" cy="662.7" r="30.9"/>
			<text id="RU" transform="matrix(1 0 0 1 252.1669 666.2626)" class="st6 st7 st9">RU</text>
		</g>
		<g id="Pallini_altri_stati">
		<g id="Pallino_Altri_Stati7">
			<path id="Cerchio_viola" class="st13" d="M367.6,662.7c0,17.1-13.5,30.9-30,30.9c-16.5,0-30-13.8-30-30.9s13.5-30.9,30-30.9
				C354.2,631.8,367.6,645.6,367.6,662.7z"/>
			<text id="CI" transform="matrix(1 0 0 1 331.3399 666.2626)" class="st6 st7 st9">CI</text>
		</g>
		<g id="Pallino_Altri_Stati6">
			<path id="Cerchio_viola_00000117657750563417664430000004241709874847157378_" class="st13" d="M445,662.7
				c0,17.1-13.6,30.9-30.5,30.9c-16.8,0-30.5-13.8-30.5-30.9c0-17,13.6-30.9,30.5-30.9S445,645.7,445,662.7z"/>
			<text id="GB" transform="matrix(1 0 0 1 405.3509 666.2626)" class="st6 st7 st9">GB</text>
		</g>
		<g id="Pallino_Altri_Stati5">
			<path id="Cerchio_viola_00000045617874819158740040000017556541340177156524_" class="st13" d="M521.6,662.7
				c0,17.1-13.6,30.9-30.5,30.9c-16.8,0-30.5-13.8-30.5-30.9c0-17,13.6-30.9,30.5-30.9C508,631.8,521.6,645.7,521.6,662.7z"/>
			<text id="FR" transform="matrix(1 0 0 1 483.0553 666.2626)" class="st6 st7 st9">FR</text>
		</g>
		<g id="Pallino_Altri_Stati4">
			<path id="Cerchio_viola_00000116933123901063100850000014513289939733627825_" class="st13" d="M599.8,662.7
				c0,17-14,30.9-31.3,30.9c-17.3,0-31.3-13.9-31.3-30.9c0-17,14-30.9,31.3-30.9C585.7,631.8,599.8,645.7,599.8,662.7z"/>
			<text id="IN" transform="matrix(1 0 0 1 561.7484 666.2626)" class="st6 st7 st9">IN</text>
		</g>
		<g id="Pallino_Altri_Stati3">
			<path id="Cerchio_viola_00000013174683397177988000000004713465616322136474_" class="st13" d="M676.3,662.7
				c0,17.1-13.6,30.9-30.5,30.9c-16.8,0-30.5-13.8-30.5-30.9c0-17,13.6-30.9,30.5-30.9S676.3,645.7,676.3,662.7z"/>
			<text id="IL" transform="matrix(1 0 0 1 640.2028 666.2625)" class="st6 st7 st9">IL</text>
		</g>
		<g id="Pallino_Altri_Stati2">
			<path id="Cerchio_viola_00000054962611243359778170000003636155792831429558_" class="st13" d="M752.9,662.7
				c0,17.1-13.6,30.9-30.5,30.9c-16.9,0-30.5-13.8-30.5-30.9c0-17,13.6-30.9,30.5-30.9C739.3,631.8,752.9,645.7,752.9,662.7z"/>
			<text id="PK" transform="matrix(1 0 0 1 714.2117 666.2626)" class="st6 st7 st9">PK</text>
		</g>
		<g id="Pallino_Altri_Stati1">
			<path id="Cerchio_viola_00000052101437346080439810000018250074093706158270_" class="st13" d="M830,662.7
				c0,17.1-13.6,30.9-30.5,30.9c-16.8,0-30.5-13.8-30.5-30.9c0-17,13.6-30.9,30.5-30.9C816.4,631.8,830,645.7,830,662.7z"/>
			<text id="KP" transform="matrix(1 0 0 1 791.2936 666.2626)" class="st6 st7 st9">KP</text>
		</g>
	</g>
	</g>

	<g id="Numero_Testate">
		<text transform="matrix(1 0 0 1 856.7789 44.2192)" class="st6 st7 st9">63.000</text>
		<text transform="matrix(1 0 0 1 856.6109 144.3073)" class="st6 st7 st9">50.000</text>
		<text transform="matrix(1 0 0 1 856.6531 232.9062)" class="st6 st7 st9">40.000</text>
		<text transform="matrix(1 0 0 1 856.7597 320.4372)" class="st6 st7 st9">30.000</text>
		<text transform="matrix(1 0 0 1 856.8994 406.2185)" class="st6 st7 st9">20.000</text>
		<text transform="matrix(1 0 0 1 858.1454 494.1949)" class="st6 st7 st9">10.000</text>
	</g>
	<text transform="matrix(1 0 0 1 0.8252 56.4342)" class="st6 st2 st3">Testate</text>
	<text transform="matrix(1 0 0 1 0.8252 83.2343)" class="st6 st2 st3">nucleari</text>
	<text transform="matrix(1 0 0 1 0.8252 110.0343)" class="st6 st2 st3">globali</text>
</g>
</svg>
