<?xml version="1.0" encoding="utf-8"?>
<!-- Generator: Adobe Illustrator 25.4.1, SVG Export Plug-In . SVG Version: 6.00 Build 0)  -->
<svg version="1.1" xmlns="http://www.w3.org/2000/svg" xmlns:xlink="http://www.w3.org/1999/xlink" x="0px" y="0px"
	 viewBox="0 0 377.2 361.5" style="enable-background:new 0 0 377.2 361.5;" xml:space="preserve">
<style type="text/css">
	.st0{display:none;}
	.st1{display:inline;}
	.st2{fill:none;stroke:#FFFFFF;stroke-width:5;stroke-miterlimit:10;}
	.st3{fill:#FFFFFF;}
</style>
<g id="Livello_2" class="st0">
	<rect class="st1" width="377.2" height="361.5"/>
</g>
<g id="Livello_1">
	<path class="st0" d="M188.6,14.3c93.2,0,168.9,75.7,168.8,168.8c-0.1,93.2-75.8,168.9-169,168.7c-93.1-0.2-168.5-75.6-168.6-168.7
		C19.7,90.1,95.4,14.4,188.6,14.3z M140.4,156.2c0,11.7,0,23,0,34.8c9.6,0,19.1,0,28.8,0c0,28.9,0,57.2,0,85.6c11.5,0,22.6,0,34.1,0
		c0-28.7,0-57.2,0-86.1c1.5,0,2.7,0,3.9,0c7.6,0,15.3-0.1,22.9,0c2.5,0,3.6-0.6,3.7-3.2c0.2-3.7,0.8-7.4,1.2-11.2
		c0.7-6.4,1.4-12.8,2.1-19.6c-11.4,0-22.2,0-33.5,0c0-7.9,0-15.5,0-23.1c0-9.2,4.3-13.4,13.5-13.4c6.6,0,13.1,0,19.8,0
		c0-10.4,0-20.3,0-30.8c-10.5,0-20.7,0-30.9,0c-19.3,0-36.5,17.1-36.6,36.3c0,8.1,0,16.2,0,24.4c0,2,0,3.9,0,6.2
		C159.5,156.2,150,156.2,140.4,156.2z"/>
	<g>
		<circle class="st2" cx="188.6" cy="180.8" r="168.8"/>
		<path class="st3" d="M140.3,154c9.7,0,19.1,0,29,0c0-2.3,0-4.3,0-6.2c0-8.1,0-16.2,0-24.4c0.1-19.2,17.3-36.3,36.6-36.3
			c10.2,0,20.4,0,30.9,0c0,10.4,0,20.4,0,30.8c-6.6,0-13.2,0-19.8,0c-9.3,0-13.5,4.2-13.5,13.4c0,7.6,0,15.2,0,23.1
			c11.3,0,22.1,0,33.5,0c-0.7,6.8-1.4,13.2-2.1,19.6c-0.4,3.7-1.1,7.4-1.2,11.2c-0.1,2.7-1.3,3.3-3.7,3.2c-7.6-0.1-15.2,0-22.9,0
			c-1.2,0-2.4,0-3.9,0c0,28.9,0,57.3,0,86.1c-11.4,0-22.6,0-34.1,0c0-28.4,0-56.7,0-85.6c-9.7,0-19.1,0-28.8,0
			C140.3,177,140.3,165.7,140.3,154z"/>
	</g>
</g>
</svg>
