<?xml version="1.0" encoding="utf-8"?>
<!-- Generator: Adobe Illustrator 25.4.1, SVG Export Plug-In . SVG Version: 6.00 Build 0)  -->
<svg version="1.1" xmlns="http://www.w3.org/2000/svg" xmlns:xlink="http://www.w3.org/1999/xlink" x="0px" y="0px"
	 viewBox="0 0 377.2 361.5" style="enable-background:new 0 0 377.2 361.5;" xml:space="preserve">
<style type="text/css">
	.st0{display:none;}
	.st1{display:inline;}
	.st2{fill:none;stroke:#FFFFFF;stroke-width:5;stroke-miterlimit:10;}
	.st3{fill:#FFFFFF;}
</style>
<g id="sfondo" class="st0">
	<rect class="st1" width="377.2" height="361.5"/>
</g>
<g id="cerchio">
	<circle class="st2" cx="188.6" cy="180.8" r="168.8"/>
</g>
<g id="twitter">
	<path class="st3" d="M108,114.8c23,19.9,46,38.4,78.5,36.7c0.5-5.8,0.6-10.9,1.3-15.9c4.8-30.8,42.4-37.6,60.1-21.7
		c3.6,3.3,7.2,3.8,11.2,2.7c6-1.7,11.7-4,17.4-5.9c0.1,4.1-1.3,6-13.5,18.8c6.1-1,12.2-2.1,18.7-3.2c-3.5,6.4-8.6,11.1-15,14.1
		c-2.3,1.1-2.9,2.2-2.9,4.7c1,44.8-23.4,85-60.7,101.9c-16.9,7.7-34.8,9.8-53.1,8.5c-17.8-1.3-34.9-5.9-51.4-12.9
		c-0.9-0.4-1.7-0.9-3.4-1.8c15.5-0.2,29.6-2.2,42.7-8.6c3.7-1.8,7.1-4.1,11.6-6.8c-16.6-3.8-29.6-10.5-35.1-27.6
		c5.6,0,10.8,0,15.9,0c-14.5-9-28.5-17.6-28.8-37.8c6.1,2.4,11.4,4.5,17.9,3.3C105.1,149.6,99.4,134.2,108,114.8z"/>
</g>
</svg>
