<?xml version="1.0" encoding="utf-8"?>
<!-- Generator: Adobe Illustrator 23.0.3, SVG Export Plug-In . SVG Version: 6.00 Build 0)  -->
<svg version="1.1" id="Livello_1" xmlns="http://www.w3.org/2000/svg" xmlns:xlink="http://www.w3.org/1999/xlink" x="0px" y="0px"
	 viewBox="0 0 72.3 20.9" style="enable-background:new 0 0 72.3 20.9;" xml:space="preserve">
<style type="text/css">
	.st0{clip-path:url(#SVGID_2_);}
	.st1{clip-path:url(#SVGID_4_);fill:#FFFFFF;}
	.st2{clip-path:url(#SVGID_6_);}
	.st3{clip-path:url(#SVGID_8_);fill:#FFFFFF;}
	.st4{clip-path:url(#SVGID_10_);}
	.st5{clip-path:url(#SVGID_12_);fill:#FFFFFF;}
	.st6{clip-path:url(#SVGID_14_);}
	.st7{clip-path:url(#SVGID_16_);fill:#FFFFFF;}
	.st8{clip-path:url(#SVGID_18_);}
	.st9{clip-path:url(#SVGID_20_);fill:#FFFFFF;}
	.st10{clip-path:url(#SVGID_22_);}
	.st11{clip-path:url(#SVGID_24_);fill:#FFFFFF;}
	.st12{clip-path:url(#SVGID_26_);}
	.st13{clip-path:url(#SVGID_28_);fill:#FFFFFF;}
	.st14{clip-path:url(#SVGID_30_);}
	.st15{clip-path:url(#SVGID_32_);fill:#FFFFFF;}
	.st16{clip-path:url(#SVGID_34_);}
	.st17{clip-path:url(#SVGID_36_);fill:#FFFFFF;}
	.st18{clip-path:url(#SVGID_38_);}
	.st19{clip-path:url(#SVGID_40_);fill:#FFFFFF;}
	.st20{clip-path:url(#SVGID_42_);}
	.st21{clip-path:url(#SVGID_44_);fill:#FFFFFF;}
	.st22{clip-path:url(#SVGID_46_);}
	.st23{clip-path:url(#SVGID_48_);fill:#00FFBA;}
	.st24{clip-path:url(#SVGID_50_);}
	.st25{clip-path:url(#SVGID_52_);fill:#FFFFFF;}
	.st26{clip-path:url(#SVGID_54_);}
	.st27{clip-path:url(#SVGID_56_);fill:#FFFFFF;}
</style>
<g>
	<defs>
		<path id="SVGID_1_" d="M30,20L30,20L30,20L30,20z M30,20L30,20L30,20L30,20L30,20L30,20L30,20z M30,20L30,20L30,20L30,20L30,20
			L30,20L30,20L30,20L30,20L30,20L30,20L30,20L30,20L30,20L30,20L30,20L30,20L30,20L30,20L30,20L30,20L30,20z M30,20L30,20L30,20
			L30,20L30,20L30,20L30,20L30,20L30,20L30,20L30,20L30,20L30,20L30,20L30,20L30,20L30,20L30,20L30,20L30,20L30,20L30,20L30,20
			L30,20L30,20L30,20L30,20L30,20L30,20z M30,20L30,20L30,20L30,20L30,20L30,20L30,20L30,20L30,20L30,20L30,20L30,20L30,20L30,20
			L30,20L30,20L30,20L30,20L30,20L30,20L30,20L30,20L30,20L30,20L30,20L30,20L30,20L30,20L30,20z M30,20L30,20L30,20L30,20L30,20
			L30,20L30,20L30,20L30,20L30,20L30,20L30,20L30,20L30,20L30,20L30,20L30,20z M30,20L30,20L30,20L30,20L30,20L30,20L30,20z M30,20
			L30,20L30,20L30,20L30,20z M30,20L30,20L30,20L30,20L30,20L30,20L30,20z M30,20L30,20L30,20L30,20L30,20L30,20L30,20z M30,20
			L30,20L30,20L30,20L30,20L30,20L30,20L30,20L30,20L30,20L30,20L30,20L30,20L30,20L30,20L30,20L30,20L30,20L30,20L30,20L30,20
			L30,20L30,20L30,20L30,20L30,20L30,20L30,20L30,20L30,20L30,20L30,20L30,20L30,20L30,20L30,20z M30,20L30,20L30,20L30,20L30,20
			L30,20L30,20L30,20L30,20L30,20L30,20L30,20L30,20L30,20L30,20L30,20L30,20L30,20L30,20L30,20L30,20L30,20L30,20L30,20z M30,20
			L30,20L30,20L30,20L30,20L30,20L30,20L30,20L30,20L30,20L30,20L30,20L30,20L30,20L30,20L30,20L30,20L30,20L30,20L30,20L30,20
			L30,20L30,20L30,20L30,20L30,20L30,20L30,20L30,20L30,20L30,20L30,20L30,20L30,20L30,20L30,20L30,20L30,20z M30,20L30,20L30,20
			L30,20L30,20L30,20z M30,20L30,20L30,20L30,20L30,20L30,20L30,20L30,20L30,20L30,20L30,20L30,20L30,20L30,20L30,20L30,20L30,20
			L30,20L30,20L30,20L30,20L30,20L30,20z"/>
	</defs>
	<use xlink:href="#SVGID_1_"  style="overflow:visible;fill:#FFFFFF;"/>
	<clipPath id="SVGID_2_">
		<use xlink:href="#SVGID_1_"  style="overflow:visible;"/>
	</clipPath>
	<g class="st0">
		<defs>
			<polygon id="SVGID_3_" points="30,20 30,20 30,20 30,20 			"/>
		</defs>
		<use xlink:href="#SVGID_3_"  style="overflow:visible;fill:#FFFFFF;"/>
		<clipPath id="SVGID_4_">
			<use xlink:href="#SVGID_3_"  style="overflow:visible;"/>
		</clipPath>
		<polygon class="st1" points="30,20 30,20 30,20 30,20 		"/>
	</g>
</g>
<g>
	<defs>
		<polygon id="SVGID_5_" points="30,20 30,20 30,20 30,20 30,20 30,20 30,20 30,20 30,20 30,20 30,20 30,20 30,20 30,20 30,20 
			30,20 		"/>
	</defs>
	<use xlink:href="#SVGID_5_"  style="overflow:visible;fill:#FFFFFF;"/>
	<clipPath id="SVGID_6_">
		<use xlink:href="#SVGID_5_"  style="overflow:visible;"/>
	</clipPath>
	<g class="st2">
		<defs>
			<polygon id="SVGID_7_" points="30,20 30,20 30,20 30,20 			"/>
		</defs>
		<use xlink:href="#SVGID_7_"  style="overflow:visible;fill:#FFFFFF;"/>
		<clipPath id="SVGID_8_">
			<use xlink:href="#SVGID_7_"  style="overflow:visible;"/>
		</clipPath>
		<polygon class="st3" points="30,20 30,20 30,20 30,20 		"/>
	</g>
</g>
<g>
	<defs>
		<polygon id="SVGID_9_" points="30,20 30,20 30,20 30,20 30,20 30,20 30,20 30,20 30,20 30,20 30,20 30,20 30,20 30,20 30,20 		"/>
	</defs>
	<use xlink:href="#SVGID_9_"  style="overflow:visible;fill:#FFFFFF;"/>
	<clipPath id="SVGID_10_">
		<use xlink:href="#SVGID_9_"  style="overflow:visible;"/>
	</clipPath>
	<g class="st4">
		<defs>
			<polygon id="SVGID_11_" points="30,20 30,20 30,20 30,20 			"/>
		</defs>
		<use xlink:href="#SVGID_11_"  style="overflow:visible;fill:#FFFFFF;"/>
		<clipPath id="SVGID_12_">
			<use xlink:href="#SVGID_11_"  style="overflow:visible;"/>
		</clipPath>
		<polygon class="st5" points="30,20 30,20 30,20 30,20 		"/>
	</g>
</g>
<g>
	<defs>
		<polyline id="SVGID_13_" points="30,20 30,20 30,20 30,20 30,20 30,20 30,20 30,20 30,20 30,20 30,20 30,20 30,20 30,20 30,20 
			30,20 30,20 30,20 30,20 30,20 		"/>
	</defs>
	<use xlink:href="#SVGID_13_"  style="overflow:visible;fill:#FFFFFF;"/>
	<clipPath id="SVGID_14_">
		<use xlink:href="#SVGID_13_"  style="overflow:visible;"/>
	</clipPath>
	<g class="st6">
		<defs>
			<polygon id="SVGID_15_" points="30,20 30,20 30,20 30,20 			"/>
		</defs>
		<use xlink:href="#SVGID_15_"  style="overflow:visible;fill:#FFFFFF;"/>
		<clipPath id="SVGID_16_">
			<use xlink:href="#SVGID_15_"  style="overflow:visible;"/>
		</clipPath>
		<polygon class="st7" points="30,20 30,20 30,20 30,20 		"/>
	</g>
</g>
<g>
	<defs>
		<path id="SVGID_17_" d="M30,20L30,20L30,20L30,20L30,20 M30,20L30,20L30,20L30,20L30,20"/>
	</defs>
	<use xlink:href="#SVGID_17_"  style="overflow:visible;fill:#FFFFFF;"/>
	<clipPath id="SVGID_18_">
		<use xlink:href="#SVGID_17_"  style="overflow:visible;"/>
	</clipPath>
	<g class="st8">
		<defs>
			<polygon id="SVGID_19_" points="30,20 30,20 30,20 30,20 			"/>
		</defs>
		<use xlink:href="#SVGID_19_"  style="overflow:visible;fill:#FFFFFF;"/>
		<clipPath id="SVGID_20_">
			<use xlink:href="#SVGID_19_"  style="overflow:visible;"/>
		</clipPath>
		<polygon class="st9" points="30,20 30,20 30,20 30,20 		"/>
	</g>
</g>
<g>
	<defs>
		<polygon id="SVGID_21_" points="30,20 30,20 30,20 30,20 30,20 30,20 30,20 30,20 30,20 30,20 30,20 30,20 30,20 30,20 30,20 		
			"/>
	</defs>
	<use xlink:href="#SVGID_21_"  style="overflow:visible;fill:#FFFFFF;"/>
	<clipPath id="SVGID_22_">
		<use xlink:href="#SVGID_21_"  style="overflow:visible;"/>
	</clipPath>
	<g class="st10">
		<defs>
			<polygon id="SVGID_23_" points="30,20 30,20 30,20 30,20 			"/>
		</defs>
		<use xlink:href="#SVGID_23_"  style="overflow:visible;fill:#FFFFFF;"/>
		<clipPath id="SVGID_24_">
			<use xlink:href="#SVGID_23_"  style="overflow:visible;"/>
		</clipPath>
		<polygon class="st11" points="30,20 30,20 30,20 30,20 		"/>
	</g>
</g>
<g>
	<defs>
		<path id="SVGID_25_" d="M30,20L30,20L30,20L30,20L30,20L30,20 M30,20L30,20L30,20L30,20L30,20L30,20L30,20L30,20L30,20L30,20
			L30,20L30,20"/>
	</defs>
	<use xlink:href="#SVGID_25_"  style="overflow:visible;fill:#FFFFFF;"/>
	<clipPath id="SVGID_26_">
		<use xlink:href="#SVGID_25_"  style="overflow:visible;"/>
	</clipPath>
	<g class="st12">
		<defs>
			<polygon id="SVGID_27_" points="30,20 30,20 30,20 30,20 			"/>
		</defs>
		<use xlink:href="#SVGID_27_"  style="overflow:visible;fill:#FFFFFF;"/>
		<clipPath id="SVGID_28_">
			<use xlink:href="#SVGID_27_"  style="overflow:visible;"/>
		</clipPath>
		<polygon class="st13" points="30,20 30,20 30,20 30,20 		"/>
	</g>
</g>
<g>
	<g>
		<defs>
			<path id="SVGID_29_" d="M55.7,15.7h-6.3l6.3-6.3H51l-7.8,7.8v3.1h12.5L55.7,15.7z M47.9,17.2L47.9,17.2L47.9,17.2L47.9,17.2z"/>
		</defs>
		<clipPath id="SVGID_30_">
			<use xlink:href="#SVGID_29_"  style="overflow:visible;"/>
		</clipPath>
		<g class="st14">
			<defs>
				<rect id="SVGID_31_" x="-683.5" y="-20.9" width="1440" height="2994"/>
			</defs>
			<clipPath id="SVGID_32_">
				<use xlink:href="#SVGID_31_"  style="overflow:visible;"/>
			</clipPath>
			<rect x="38.2" y="4.4" class="st15" width="22.5" height="20.9"/>
		</g>
	</g>
	<g>
		<defs>
			<polygon id="SVGID_33_" points="71.3,15.7 71.3,12.5 68.2,12.5 68.2,0 63.5,4.7 63.5,18.8 61.9,18.8 61.9,20.3 69.8,20.3 
				69.8,18.8 68.2,18.8 68.2,15.7 			"/>
		</defs>
		<clipPath id="SVGID_34_">
			<use xlink:href="#SVGID_33_"  style="overflow:visible;"/>
		</clipPath>
		<g class="st16">
			<defs>
				<rect id="SVGID_35_" x="-683.5" y="-20.9" width="1440" height="2994"/>
			</defs>
			<clipPath id="SVGID_36_">
				<use xlink:href="#SVGID_35_"  style="overflow:visible;"/>
			</clipPath>
			<rect x="56.9" y="-5" class="st17" width="19.4" height="30.3"/>
		</g>
	</g>
	<g>
		<defs>
			<polygon id="SVGID_37_" points="58.8,12.5 58.8,9.4 55.7,12.5 55.7,15.7 61.9,15.7 61.9,12.5 			"/>
		</defs>
		<clipPath id="SVGID_38_">
			<use xlink:href="#SVGID_37_"  style="overflow:visible;"/>
		</clipPath>
		<g class="st18">
			<defs>
				<rect id="SVGID_39_" x="-683.5" y="-20.9" width="1440" height="2994"/>
			</defs>
			<clipPath id="SVGID_40_">
				<use xlink:href="#SVGID_39_"  style="overflow:visible;"/>
			</clipPath>
			<rect x="50.7" y="4.4" class="st19" width="16.3" height="16.3"/>
		</g>
	</g>
	<g>
		<defs>
			<path id="SVGID_41_" d="M48.6,6.5l-2.3-4.1c-1.9,1.1-3.1,3.1-3.1,5.4h4.7C47.9,7.2,48.2,6.7,48.6,6.5"/>
		</defs>
		<clipPath id="SVGID_42_">
			<use xlink:href="#SVGID_41_"  style="overflow:visible;"/>
		</clipPath>
		<g class="st20">
			<defs>
				<rect id="SVGID_43_" x="-683.5" y="-20.9" width="1440" height="2994"/>
			</defs>
			<clipPath id="SVGID_44_">
				<use xlink:href="#SVGID_43_"  style="overflow:visible;"/>
			</clipPath>
			<rect x="38.2" y="-2.6" class="st21" width="15.5" height="15.4"/>
		</g>
	</g>
	<g>
		<defs>
			<path id="SVGID_45_" d="M49.4,6.3l3.1-5.4c-0.9-0.5-2-0.8-3.1-0.8c-1.1,0-2.2,0.3-3.1,0.8L49.4,6.3z"/>
		</defs>
		<clipPath id="SVGID_46_">
			<use xlink:href="#SVGID_45_"  style="overflow:visible;"/>
		</clipPath>
		<g class="st22">
			<defs>
				<rect id="SVGID_47_" x="-683.5" y="-20.9" width="1440" height="2994"/>
			</defs>
			<clipPath id="SVGID_48_">
				<use xlink:href="#SVGID_47_"  style="overflow:visible;"/>
			</clipPath>
			<rect x="41.3" y="-5" class="st23" width="16.3" height="16.3"/>
		</g>
	</g>
	<g>
		<defs>
			<path id="SVGID_49_" d="M52.6,2.4l-2.3,4.1C50.7,6.7,51,7.2,51,7.8h4.7C55.7,5.5,54.4,3.5,52.6,2.4"/>
		</defs>
		<clipPath id="SVGID_50_">
			<use xlink:href="#SVGID_49_"  style="overflow:visible;"/>
		</clipPath>
		<g class="st24">
			<defs>
				<rect id="SVGID_51_" x="-683.5" y="-20.9" width="1440" height="2994"/>
			</defs>
			<clipPath id="SVGID_52_">
				<use xlink:href="#SVGID_51_"  style="overflow:visible;"/>
			</clipPath>
			<rect x="45.2" y="-2.6" class="st25" width="15.5" height="15.4"/>
		</g>
	</g>
	<g>
		<defs>
			<path id="SVGID_53_" d="M35.2,17.2c1.6,0,2.8-1.1,2.8-2.8c0-1.7-1.2-2.8-2.8-2.8c-1.6,0-2.7,1.1-2.7,2.8
				C32.4,16.1,33.6,17.2,35.2,17.2z M36.3,20.8c-1.9,0-3.1-0.8-3.9-2h-0.1v1.6h-3.9V2.3h3.9v7.8h0.1c0.8-1.2,2-2,3.9-2
				c3.1,0,5.7,2.2,5.7,6.4C41.9,18.6,39.4,20.8,36.3,20.8z M19.3,17.2c1.6,0,2.8-1.1,2.8-2.8c0-1.7-1.2-2.8-2.8-2.8
				c-1.6,0-2.7,1.1-2.7,2.8C16.6,16.1,17.8,17.2,19.3,17.2z M18.3,20.8c-3.1,0-5.7-2.2-5.7-6.4c0-4.2,2.6-6.4,5.7-6.4
				c1.9,0,3.2,0.8,3.9,2h0.1V8.4h3.9v12h-3.9v-1.6h-0.1C21.4,20,20.2,20.8,18.3,20.8z M5.1,2.3v14.3h7.2v3.8H1.1V2.3H5.1z"/>
		</defs>
		<clipPath id="SVGID_54_">
			<use xlink:href="#SVGID_53_"  style="overflow:visible;"/>
		</clipPath>
		<g class="st26">
			<defs>
				<rect id="SVGID_55_" x="-683.5" y="-20.9" width="1440" height="2994"/>
			</defs>
			<clipPath id="SVGID_56_">
				<use xlink:href="#SVGID_55_"  style="overflow:visible;"/>
			</clipPath>
			<rect x="-3.9" y="-2.7" class="st27" width="50.9" height="28.5"/>
		</g>
	</g>
</g>
</svg>
