<?xml version="1.0" encoding="utf-8"?>
<!-- Generator: Adobe Illustrator 25.4.1, SVG Export Plug-In . SVG Version: 6.00 Build 0)  -->
<svg version="1.1" xmlns="http://www.w3.org/2000/svg" xmlns:xlink="http://www.w3.org/1999/xlink" x="0px" y="0px"
	 viewBox="0 0 377.2 361.5" style="enable-background:new 0 0 377.2 361.5;" xml:space="preserve">
<style type="text/css">
	.st0{display:none;}
	.st1{display:inline;}
	.st2{fill:none;stroke:#FFFFFF;stroke-width:5;stroke-miterlimit:10;}
	.st3{fill:#FFFFFF;}
</style>
<g id="sfondo" class="st0">
	<rect class="st1" width="377.2" height="361.5"/>
</g>
<g id="cerchio">
	<circle class="st2" cx="188.6" cy="180.8" r="168.8"/>
</g>
<g id="linkedin">
	<g>
		<path class="st3" d="M281.3,274.4c-12.5,0-24.5,0-37.1,0c0-1.6,0-3,0-4.5c0.2-22.7,0.3-45.5,0.5-68.2c0.1-13.9-8-23-20.5-23.2
			c-15.1-0.2-25.1,8.7-25.2,23.1c-0.2,22.6-0.1,45.2-0.1,67.9c0,1.5,0,3,0,4.8c-11.7,0-23.2,0-34.9,0c0-41.6,0-83.1,0-124.9
			c11.4,0,22.6,0,34.2,0c0,5,0,10.1,0,15.1c0.6,0,1,0.1,1,0c5.8-9,14.6-13,24.7-14.5c11.2-1.7,22.4-1.5,33.4,2
			c14.2,4.5,22.9,15.1,23.5,30c0.6,13.3,0.4,26.7,0.5,40.1c0.1,16,0.1,32,0.1,48C281.3,271.6,281.3,272.9,281.3,274.4z"/>
		<path class="st3" d="M96.2,149.4c14.8,0,29.3,0,44.2,0c0,41.6,0,83.1,0,124.9c-14.6,0-29.2,0-44.2,0
			C96.2,232.9,96.2,191.4,96.2,149.4z"/>
		<path class="st3" d="M140.6,109.6c0,12.4-10.1,22.4-22.5,22.4c-12.3-0.1-22.3-10.3-22.3-22.6C96,97,106,87.1,118.4,87.1
			C130.8,87.2,140.7,97.2,140.6,109.6z"/>
	</g>
</g>
</svg>
