<?xml version="1.0" encoding="utf-8"?>
<!-- Generator: Adobe Illustrator 25.2.2, SVG Export Plug-In . SVG Version: 6.00 Build 0)  -->
<svg version="1.1" id="Layer_1" xmlns="http://www.w3.org/2000/svg" xmlns:xlink="http://www.w3.org/1999/xlink" x="0px" y="0px"
	 viewBox="0 0 68.9 26" style="enable-background:new 0 0 68.9 26;" xml:space="preserve">
<style type="text/css">
	.st0{fill:#FFFFFF;}
</style>
<g>
	<path class="st0" d="M13.3,3.2c0-0.6,0.1-0.9,0.4-0.9c0.2,0,0.3,0.2,0.3,0.5c0,0.3,0,0.4-0.1,0.4L13.3,3.2
		C13.3,3.2,13.3,3.2,13.3,3.2 M12.3,3.8c0,0.8,0.6,1.4,1.4,1.4c0.6,0,0.9-0.3,1.1-0.7l0-0.1c-0.2,0.1-0.4,0.1-0.6,0.1
		c-0.6,0-0.9-0.5-0.9-1.1c0,0,0-0.1,0-0.1c0.5,0,0.9,0,1.4,0c0.1,0,0.1,0,0.1,0c0-0.1,0.1-0.2,0.1-0.3c0-0.6-0.5-0.8-1.2-0.8
		C13,2.2,12.3,2.8,12.3,3.8 M12.1,5c0,0-0.1-0.1-0.1-0.4V2.1c0-0.5,0-1.1,0-1.1L12,1c-0.6,0-1.1,0.2-1.1,0.2s0,0,0,0.1l0.2,0
		c0,0,0.1,0.1,0.1,0.5v2.7C11,4.9,11,4.9,11,5l-0.2,0c0,0,0,0,0,0.1h1.4c0-0.1,0-0.1,0-0.1L12.1,5z M8.9,3.6C8.9,3,9,2.3,9.3,2.3
		c0.3,0,0.4,0.7,0.4,1.4c0,0.6,0,1.3-0.4,1.3C9,5.1,8.9,4.3,8.9,3.6 M7.9,3.7c0,0.9,0.7,1.5,1.4,1.5c0.8,0,1.5-0.6,1.5-1.5
		c0-0.9-0.6-1.5-1.4-1.5C8.6,2.2,7.9,2.8,7.9,3.7 M6.3,1.3C5.6,1.3,5,1.8,5,2.4C5,3,5.3,3.3,6.1,3.6C6.7,3.9,7,4,7,4.4
		c0,0.4-0.3,0.7-0.7,0.7C6.1,5.1,6,5.1,5.8,5C5.5,4.6,5.3,4.3,5.1,3.9L5,3.9C5,4.3,5,4.6,5,5.1c0.4,0.1,0.9,0.1,1.2,0.1
		c0.8,0,1.4-0.4,1.4-1.2c0-0.6-0.4-0.9-1.1-1.2c-0.8-0.3-1-0.4-1-0.8c0-0.4,0.3-0.6,0.6-0.6c0.2,0,0.3,0,0.4,0.1
		c0.3,0.3,0.5,0.6,0.7,1l0.1,0c0-0.4,0-0.8-0.1-1.1l0,0C7.3,1.3,6.7,1.3,6.3,1.3 M3.9,5c0,0-0.1-0.1-0.1-0.4V2.1c0-0.5,0-1.1,0-1.1
		L3.7,1C3.2,1,2.6,1.2,2.6,1.2s0,0,0,0.1l0.2,0c0,0,0.1,0.1,0.1,0.5v2.7c0,0.4,0,0.4-0.1,0.4L2.6,5c0,0,0,0,0,0.1H4C4,5.1,4,5,4,5
		L3.9,5z M2.4,1.5c0,0,0,0,0-0.1H0.7c0,0.1,0,0.1,0,0.1l0.3,0C1,1.6,1,1.7,1,2.3v2C1,4.8,1,4.9,1,5L0.7,5c0,0,0,0,0,0.1h1.7
		c0-0.1,0-0.1,0-0.1L2.1,5C2.1,4.9,2.1,4.8,2.1,4.2v-2c0-0.6,0-0.7,0.1-0.7L2.4,1.5z"/>
	<path class="st0" d="M68.2,19.9v4.8H57.8l-2-2.2v-0.9l0.1,0c0.4,0,0.7-0.1,1-0.4c0.4-0.3,0.5-0.6,0.5-1.1V9.6l-1.6-2V6.7h10.5
		l2,2.2v4.9h-1.1l-2-2c0,0,0-1.2-0.6-1.7c-0.6-0.5-1.2-0.4-1.2-0.4l0,2.2h0.9l2.1,2.4v4L68.2,19.9z M63.5,17.7h-0.2v3.5
		c0.3-0.2,0.7-0.4,1-0.8c0.3-0.3,0.5-0.5,0.6-0.8C64.6,19.3,63.9,18.4,63.5,17.7 M66,18.2h-0.4c-0.1,1-0.4,1.7-1.2,2.5
		c-0.9,0.8-1.7,1.2-2.8,1.2c-0.1,0-0.3,0-0.4,0l-0.1,0V15l0.1,0c0.2,0,0.4,0,0.5,0c0.5,0,0.8,0,1.1,0.3c0.3,0.3,0.5,0.5,0.5,0.9v1.3
		h0.7v-5.4h-0.5v0.6c0,0.5-0.2,0.7-0.5,1.1c-0.4,0.4-0.9,0.5-1.4,0.5h-0.2c-0.1,0-0.2,0-0.3,0h-0.1V7.5l0.1,0
		c1.1-0.1,1.8,0.2,2.7,0.8c1,0.8,1.5,1.7,1.5,3H66V6.9H55.9v0.5c0.5,0,0.9,0.2,1.3,0.6c0.3,0.3,0.3,0.6,0.3,1l0,0.2v11
		c0,0.5-0.1,0.9-0.5,1.3c-0.3,0.3-0.6,0.4-1,0.5v0.5h10V18.2z M54.9,22.2l1.2,1.5v0.9h-3.6l-2.3-0.9v0.8h-7l-2-2h0v-0.9l0.1,0
		c0.5,0,0.8-0.2,1.1-0.6c0.3-0.3,0.3-0.6,0.3-1c0-0.1,0-0.1,0-0.2V9.6L41,7.5v-1h8.7c0.3,0,0.6,0.1,1,0.2c2.3,0.5,4,2.3,4.2,4.7
		c0.2,1.8-0.3,3.2-1.7,4.4c0.6,0.4,0.8,0.7,1.2,1.3c0.3,0.5,0.5,0.9,0.6,1.5V22.2z M54,22L54,22c-0.4,0-0.8-0.1-1.1-0.5
		c-0.3-0.4-0.3-0.7-0.3-1.1v-3.1c-0.1-0.6-0.3-1-0.6-1.4c-0.4-0.6-0.8-0.8-1.5-1.1l-0.2-0.1l0.2-0.1c1.6-0.8,2.5-1.7,2.4-4.1
		c-0.1-2.3-1.7-3.6-3.2-3.8l-8.5,0v0.6c0.1,0,0.1,0,0.2,0c0.6,0,0.9,0.2,1.2,0.5c0.2,0.3,0.2,0.5,0.2,0.8c0,0.1,0,0.3,0,0.4V20
		c0,0.1,0,0.1,0,0.2c0,0.4-0.1,0.7-0.3,1.1c-0.3,0.4-0.7,0.6-1.2,0.7v0.5H48v-0.5c-0.5,0-0.9-0.2-1.3-0.6c-0.3-0.4-0.3-0.8-0.3-1.2
		v-5.1l0.3,0h0.2c0.5,0,1.1,0,1.4,0.4c0.4,0.4,0.4,0.9,0.5,1.3l0,3.9c0,0.5,0.1,0.7,0.4,1.1c0.3,0.5,0.6,0.7,1.1,0.9H54V22z
		 M46.5,7.6v6.5c0.8,0,1.4,0,1.9-0.4c0.4-0.3,0.5-0.8,0.6-1.3V9.4c-0.1-0.4-0.1-1-0.5-1.4C48,7.6,47.2,7.6,46.5,7.6 M35.8,25
		c-2.6,0-4.9-1.7-6.3-4.5c-0.9-1.5-1.5-3.6-1.5-5.8c0-4.7,2.5-8.5,5.6-8.5c0.6,0,1.2,0.1,1.7,0.4c3,1.2,5.8,5.2,5.9,9
		C41.6,19.8,39.7,25,35.8,25 M39,14.7c0-4.6-2.4-8.3-5.4-8.3c-3,0-5.4,3.7-5.4,8.3c0,4.6,2.4,8.3,5.4,8.3C36.6,23,39,19.3,39,14.7
		 M33.7,7.4c-0.6,0-1.1,0.5-1.1,1.2v12.3c0,0.7,0.5,1.2,1.1,1.2c0.6,0,1.1-0.5,1.1-1.2V8.6C34.8,7.9,34.3,7.4,33.7,7.4 M10.1,18.3
		l1.8,2v4.6H1.9l-1.7-2.2v-1l0.1,0c2-1.1,3.4-2.5,4.2-4.2c-1.2-0.4-1.9-1.1-2.7-2.2c-0.3-0.4-0.5-0.8-0.7-1.1
		c-0.4-0.5-0.6-1.2-0.6-2.1c0-1.3,0.4-3.2,1.6-4.4c0.7-0.8,1.7-1.1,2.8-1.2h0.1c0.4,0,0.8,0,1.2,0.1c2.6,0.2,4.6,1.8,5.3,4.2
		C12.1,13.2,12.2,15.9,10.1,18.3 M9.6,18.2H9.1c0,0.3-0.2,0.6-0.5,0.8c-0.4,0.3-0.6,0.3-1.1,0.3H4.6L5,19.1c2.9-1.6,4.6-4,4.6-6.6
		C9.6,10.6,9.1,9,8,8C7.2,7.2,6.2,6.7,4.9,6.7h0c-1,0-1.9,0.4-2.6,1.1C1,9,0.6,10.8,0.7,12.1c0,1.9,1.3,3.1,2.4,3.1
		c1,0,1.7-0.9,1.9-2.3c0.2-1.4-0.2-2.1-0.5-2.5c-0.2-0.2-0.5-0.3-0.8-0.3c-0.5,0-1.1,0.3-1.5,0.9l-0.1,0.1L2,11
		c-0.3-0.6-0.2-1.6,0.2-2.3c0.3-0.4,0.7-0.9,1.5-0.9h0c0.4,0,0.7,0.2,1,0.5c1.1,1.3,0.8,4.9,0.5,7c-0.4,2.7-2.1,4.9-4.9,6.5v0.7h9.2
		V18.2z M23.4,18.1l1.7,2.1v0.8h-1.6v0.8l1.5,2v0.9h-7.7l-2.2-2.1v-0.9h0.1c0.5,0,0.8,0,1.2-0.3c0.2-0.1,0.3-0.2,0.4-0.4h-3.5
		l-1.9-2h0v-1.1l0,0c1.6-1.8,2.3-2.9,3.4-4.9c1.1-2.3,1.6-3.6,2.1-6.1l0-0.1l0.1,0C17.8,6.9,18.1,7,18.8,7h0.1c0.8,0,1.3-0.1,2-0.3
		l0.1,0l2,1.9v9.1l0.2,0.3h0v0L23.4,18.1z M23.1,18.2h-2.2V6.9c-0.7,0.2-1.2,0.2-2,0.2h-0.1c-0.6,0-1,0-1.6-0.2
		c-0.5,2.4-0.9,3.8-2.1,6.1c-1.1,2.1-1.8,3.2-3.4,5v0.9h5.6l0,1.9c-0.1,0.4-0.3,0.6-0.7,0.8c-0.4,0.3-0.8,0.3-1.2,0.3v0.5h7.7v-0.6
		h-0.6c-0.4,0-0.7,0-1.1-0.3c-0.3-0.2-0.4-0.5-0.5-0.8v-1.9h2.2V18.2z M17.1,10.2h0.2v8h-4.6v-0.1c0.9-1.3,1.4-2.1,2.2-3.5
		C15.9,13,16.4,12,17.1,10.2L17.1,10.2z M17.1,15.4L15.7,18h1.4V15.4z"/>
</g>
</svg>
