<?xml version="1.0" encoding="utf-8"?>
<!-- Generator: Adobe Illustrator 25.4.1, SVG Export Plug-In . SVG Version: 6.00 Build 0)  -->
<svg version="1.1" xmlns="http://www.w3.org/2000/svg" xmlns:xlink="http://www.w3.org/1999/xlink" x="0px" y="0px"
	 viewBox="0 0 912 1061" style="enable-background:new 0 0 912 1061;" xml:space="preserve">
<style type="text/css">
	.st0{fill:none;stroke:#83F9F3;stroke-width:1.5;stroke-miterlimit:10;}
	.st1{fill:none;}
	.st2{fill:#83F9F3;}
	.st3{font-family:'Sole24SerifDisplay-Regular';}
	.st4{font-size:24px;}
	.st5{fill:none;stroke:#83F9F3;}
	.st6{fill:#EDEDEF;}
	.st7{font-family:'Sole24Sans-Regular';}
	.st8{font-size:16px;}
	.st9{fill:#6FD0CB;}
	.st10{font-size:14px;}
	.st11{fill:#FF514B;}
	.st12{fill:none;stroke:#FF514B;stroke-width:1.5;stroke-miterlimit:10;}
	.st13{fill:none;stroke:#FF514B;}
	.st14{fill:none;stroke:#7E3FE6;}
	.st15{fill:none;stroke:#7E3FE6;stroke-width:2;}
	.st16{fill:#7E3FE6;enable-background:new    ;}
	.st17{opacity:0.2;fill:none;stroke:#EDEDEF;stroke-width:1.5;enable-background:new    ;}
	.st18{fill:#EDEDEF;enable-background:new    ;}
	.st19{font-size:12px;}
	.st20{fill:none;stroke:#EDEDEF;stroke-width:0.5;}
	.st21{fill:none;stroke:#83F9F3;stroke-miterlimit:10;}
	.st22{opacity:0.7;fill:none;stroke:#FC4646;enable-background:new    ;}
	.st23{fill:none;stroke:#7E3FE6;enable-background:new    ;}
</style>
<g id="Livello_5">
	<rect y="0" width="912" height="1061"/>
</g>
<g id="USA_00000143605951873233962210000013626154694649545910_">
	<path id="Grafico_x5F_USA" class="st0" d="M82,881.9c3.5,0,7.1,0,10.6,0s7.1,0,10.6,0c3.5,0,7.1-0.2,10.6-0.5
		c3.5-0.3,7.1-1.1,10.6-1.7c3.6-0.6,7.1-1.2,10.6-1.8c3.6-0.4,7.1-1,10.6-2c3.5-1.3,7.1-4,10.6-5.7c3.6-1.7,7.1-2.6,10.6-4.6
		c3.8-2.2,7.3-4.7,10.6-7.5c4-3,7.5-6.4,10.6-10.3c4.1-5.6,7.7-11.6,10.6-17.9c3.6-7.3,7.1-17.5,10.6-26.2
		c3.6-8.6,7.1-9.5,10.6-25.5c3.5-15.9,7.1-43.4,10.6-70c3.5-26.6,7.1-66.2,10.6-89.6c3.5-23.4,7.1-34.5,10.6-50.7
		c3.5-16.3,7.1-32.9,10.6-46.8c2.9-12.4,6.4-24.6,10.6-36.6c3.5-9.2,7.1-11.7,10.6-18.8c3.5-7.1,7.1-23.3,10.6-23.7
		c3.6-0.3,7.1-0.2,10.6-0.5c3.5-0.3,7.1-1.1,10.6-1.1c3.6,0,7.1,15.2,10.6,23.9c3.5,8.6,7.1,20,10.6,28.4
		c3.6,8.4,7.1,20.2,10.6,21.8c3.3,1.6,6.9,2.5,10.6,2.5c3.5,0,7.1-5,10.6-9.7c3.5-4.7,7.1-13.9,10.6-18.6c3.5-4.8,7.1-9.9,10.6-9.9
		c3.5,0,7.1,8.2,10.6,14.4c3.5,6.2,7.1,19.2,10.6,22.7c3.5,3.5,7.1,1.8,10.6,5.3c3.6,3.4,7.1,13.2,10.6,15.9
		c3.1,2.3,6.8,3.7,10.6,3.9c3.5,0.3,7.1,0.2,10.6,0.5c3.5,0.3,7.1,9.8,10.6,12.7c2.9,2.7,6.7,4.3,10.6,4.6c3.5,0,7.1-4.6,10.6-5.9
		c3.4-1.4,7-2.1,10.6-2.2c3.6,0,7.1,1,10.6,1.3c3.6,0.3,7.1,0.7,10.6,0.7s7.1-3.7,10.6-3.7s7.1,2,10.6,5.2c3.6,3.2,7.1,9.7,10.6,14
		c3.5,4.3,7.1,4.1,10.6,11.7c3.5,7.6,7.1,15.6,10.6,33.7s7.1,57.2,10.6,74.9c3.5,17.6,7.1,26,10.6,31.1c1.2,1.9,2.7,3.6,4.5,4.9
		c1.8,1.3,3.9,2.2,6.1,2.7c3.5,0.7,7,1.1,10.6,1.1c3.6,0,7.1-1.5,10.6-1.5c3.6,0.2,7.1,0.7,10.6,1.5c3.5,0.7,7.1,2,10.6,2.4
		c3.5,0.4,7.1,0.3,10.6,0.7c3.5,0.4,7.1,1.2,10.6,1.5c3.5,0.4,7.1,0.4,10.6,0.7c3.5,0.1,7.1,0.5,10.6,1c4.2,0.7,7.9,2.8,10.6,6.1
		c3.5,4.2,7,18.7,10.6,20.7c3.6,2,7.1,1.3,10.6,3c3.6,1.7,7.1,2.4,10.6,7.2c3.5,4.8,7.1,26.2,10.6,30.3s7.1,4.8,10.6,6.2
		c3.4,1.2,7,2,10.6,2.3c3.5,0.4,7.1,0.2,10.6,0.7c3.5,0.4,7.1,2.2,10.6,2.4c3.5,0.1,7.1,0,10.6,0.2c3.5,0.2,7.1,0.7,10.6,1.1
		c3.6,0.4,7.1,0.7,10.6,1.2c3.6,0.3,7.2,1,10.6,2.1c3.5,1.4,7.1,6,10.6,7.8c3.3,1.6,7,2.5,10.6,2.8c3.5,0.3,7.1,0.5,10.6,0.5
		c3.5,0,7.1-0.3,10.6-0.3c3.5,0,7.1,0.6,10.6,0.8c3.5,0.2,7.1,0.6,10.6,0.6h10.6"/>
	<rect x="5" y="21.7" class="st1" width="58.6" height="29.6"/>
	<text transform="matrix(1 0 0 1 5.0444 38.6813)" class="st2 st3 st4">USA</text>
	<g id="Didascalia_x5F_USA">
		<path id="Linea_x5F_didascalia_x5F_USA" class="st5" d="M75.5,433h240"/>
		<rect x="75.5" y="407.6" class="st1" width="181.9" height="95.8"/>
		<text id="Testo_x5F_USA" transform="matrix(1 0 0 1 75.465 418.8236)"><tspan x="0" y="0" class="st6 st7 st8">1967</tspan><tspan x="0" y="38.4" class="st6 st7 st8">L’accordo per disciplinare</tspan><tspan x="0" y="57.6" class="st6 st7 st8">l’uso di armamenti</tspan><tspan x="0" y="76.8" class="st6 st7 st8">nucleari</tspan></text>
	</g>
	<rect x="851.3" y="421.3" class="st1" width="49" height="11.2"/>
	<text id="_x33_1.000" transform="matrix(1 0 0 1 858.6628 431.1646)" class="st9 st7 st10">31.000</text>
</g>
<g id="RUSSIA">
	<rect x="4.8" y="21.7" class="st1" width="67.1" height="21.4"/>
	<text transform="matrix(1 0 0 1 4.7614 38.6818)" class="st11 st3 st4">Russia</text>
	<path id="Grafico_x5F_RU" class="st12" d="M122.8,884.1c3.5,0,7.1,0,10.6,0c3.5,0,7.1-0.2,10.6-0.3c3.5-0.1,7.1-0.1,10.7-0.3
		c3.6-0.2,7.1-0.8,10.7-1c3.5-0.2,7.1-0.2,10.7-0.4c3.5-0.2,7.1-0.2,10.6-0.7c3.6-0.8,7.2-1.9,10.6-3.2c3.6-1.1,7.1-2.3,10.7-3.3
		c3.6-1,7-2,10.7-2.9c3.7-0.9,7.1-0.9,10.6-2.6c3.9-2.2,7.5-4.9,10.7-8.2c3.5-3.4,7.1-8.2,10.7-12.2c3.5-4.1,7.1-7.9,10.7-12
		c3.5-4.2,7.1-8.4,10.6-12.8c3.5-4.4,7.1-9.4,10.6-13.9c3.5-4.4,7.1-8.4,10.7-12.7c3.8-4.3,7.3-8.7,10.6-13.4
		c3.5-5.3,7.1-12.8,10.7-18.5c3.6-5.6,7.1-10.1,10.6-15.4c3.5-5.3,7.1-11.4,10.7-16.7c3.6-5.3,7.1-8.9,10.6-15
		c3.5-6.1,7.1-15,10.6-21.8c3.5-6.7,7.1-12.5,10.6-18.6c3.5-6.1,7.1-11.7,10.7-18c3.5-6.3,7.1-12,10.6-19.9
		c4.2-8.9,7.7-18.1,10.7-27.5c3.5-11.5,7.1-29.5,10.6-41.3c3.5-11.8,7.1-20.4,10.7-29.9s7.1-17.3,10.6-26.6
		c3.5-9.4,7.1-18.9,10.6-29.5c3.5-10.6,7.1-24.8,10.6-34c3.5-9.2,7.1-14.2,10.7-20.9c3.5-6.6,7.1-11.9,10.7-18.9
		c3.6-7,7.1-15.4,10.6-23.2c3.5-7.8,7.1-15.8,10.6-23.8c3.5-8,7.1-16.9,10.7-24.8c3.6-7.8,7.1-22.2,10.6-22.2s7.1,20.4,10.6,29
		c3.5,8.5,7.1,15,10.7,22.1c3.6,7.1,7.1,12.2,10.7,20.6c4.4,9.5,8,19.4,10.7,29.6c3.5,13.9,7.1,39.3,10.6,54
		c3.5,14.7,7.1,23,10.6,34.1c3.5,11.2,7.1,20.2,10.7,32.9c3.6,12.7,7.1,28.6,10.6,43.2c3.5,14.6,7.1,31.9,10.6,44.6
		c3.5,12.7,7.1,26.9,10.7,31.6c3.5,4.7,7.1,3.3,10.7,7s7.1,9.9,10.6,15.2c3.5,5.3,7.1,11.5,10.6,16.6s7.1,9.3,10.6,14.1
		c3.5,4.8,7.1,9.7,10.7,14.7l10.6,14.7l10.7,14.7l10.6,14.7c3.5,4.9,7.1,11.4,10.7,14.7c3.6,3.3,7.1,3.4,10.6,5l10.6,5
		c3.5,1.7,7.1,3.2,10.6,5s7.1,4,10.7,5.7c3.5,1.7,7.1,2.8,10.6,4.4c3.5,1.6,7.1,4,10.7,5c3.5,0.8,7.1,1.3,10.6,1.5
		c3.6,0.5,7.1,1.1,10.7,1.4c3.6,0.3,7.1,0.3,10.6,0.7c3.5,0.4,7.1,1.3,10.6,1.4c3.5,0.1,7.1,0,10.6,0.1c3.5,0.1,7.1,2.7,10.7,2.7
		c3.5,0,7.1-0.7,10.7-0.7s7.1,0.2,10.6,0.3c3.5,0.1,7.1,0.3,10.6,0.3s7.1-3,10.5-3s7.1,0.1,10.6,0.3"/>
	<rect x="851.3" y="312.9" class="st1" width="49" height="11.2"/>
	<text id="_x33_8.500" transform="matrix(1 0 0 1 857.1364 322.7253)" class="st11 st7 st10">38.500</text>
	<g id="Didascalia_x5F_RU">
		<rect x="249.1" y="281.8" class="st1" width="95.7" height="76.5"/>
		<text id="Testo_x5F_RU" transform="matrix(1 0 0 1 249.0557 293.0999)"><tspan x="0" y="0" class="st6 st7 st8">1986</tspan><tspan x="0" y="38.4" class="st6 st7 st8">La catastrofe</tspan><tspan x="0" y="57.6" class="st6 st7 st8">di Chernobyl</tspan></text>
		<path id="Linea_x5F_didascalia_x5F_RU" class="st13" d="M249.1,308.9h268"/>
	</g>
</g>
<g id="Altri_stati">
	<g id="Didascalia_x5F_Altri_Stati">
		<path class="st14" d="M851.3,876.4v-176"/>
		<path class="st14" d="M851.3,701l-15.4,0.1l-15.4,0.1l-15.4,0.1l-15.4,0.1c-5.1,0-10.3,0.2-15.4,0.2c-5.1,0-10.3-0.3-15.5-0.3
			h-15.4"/>
		<path class="st14" d="M156.6,485.4v396"/>
		<path class="st14" d="M274.6,687.4v194"/>
		<rect x="171.6" y="485.4" class="st1" width="207.6" height="95.9"/>
		<text id="Testo_x5F_Altri" transform="matrix(1 0 0 1 171.6145 496.6948)"><tspan x="0" y="0" class="st6 st7 st8">Regno Unito - Anni ‘50</tspan><tspan x="0" y="38.4" class="st6 st7 st8">La Guerra Fredda</tspan><tspan x="0" y="57.6" class="st6 st7 st8">e le strategie</tspan><tspan x="0" y="76.8" class="st6 st7 st8">di deterrenza nucleari</tspan></text>
		<rect x="289.4" y="688.2" class="st1" width="233.7" height="54.5"/>
		<text id="Testo_x5F_Altri_00000086692596414427850600000016563950526750474398_" transform="matrix(1 0 0 1 289.3757 699.4739)"><tspan x="0" y="0" class="st6 st7 st8">Francia - Anni ‘60</tspan><tspan x="0" y="38.4" class="st6 st7 st8">Lo sviluppo della triade nucleare</tspan></text>
		<rect x="580.3" y="677.5" class="st1" width="180.5" height="115.5"/>
		<text id="Testo_x5F_Altri_00000018230536892864640000000013480733495800705951_" transform="matrix(1 0 0 1 580.295 688.7567)"><tspan x="0" y="0" class="st6 st7 st8">Corea del Nord - 2012</tspan><tspan x="0" y="38.4" class="st6 st7 st8">Kim Jong-un consolida</tspan><tspan x="0" y="57.6" class="st6 st7 st8">la sua posizione</tspan><tspan x="0" y="76.8" class="st6 st7 st8">di comandante supremo</tspan><tspan x="0" y="96" class="st6 st7 st8">delle forze armate</tspan></text>
	</g>
	<g id="Grafico_x5F_Altri_Stati">
		<path class="st15" d="M274.6,881c3.6,0,7.2,0,10.8,0c3.6,0,7.2-0.2,10.8-0.2c3.6,0,7.2,0,10.8-0.1c3.6-0.1,7.2-0.1,10.8-0.1
			c3.6-0.1,7.2-0.1,10.8-0.2c3.6-0.1,7.2-0.2,10.8-0.4l10.8-0.3c3.6-0.1,7.2-0.3,10.8-0.4c3.6-0.1,7.2-0.2,10.8-0.3
			c3.6-0.1,7.2-0.2,10.8-0.3c3.6-0.1,7.2-0.1,10.8-0.1h21.6c3.6,0,7.2-0.1,10.8-0.1l10.8-0.1c3.6,0,7.2-0.1,10.8-0.1l10.8-0.1
			c3.6,0,7.2-0.1,10.8-0.1h10.8h10.8h10.8h10.8h10.8h10.8h10.8H555h10.8h53.9c3.6,0,7.2,0,10.8,0h32.3c3.6,0,7.2,0,10.8,0h75.5
			c3.6,0,7.2-0.1,10.8-0.1h32.3c3.6,0,7.2-0.1,10.8-0.1h10.7c3.6,0,7.2-0.1,10.8-0.1h10.8c3.6,0,7.2-0.1,10.8-0.1l10.8-0.1
			c3.6,0,7.2,0,10.8-0.1c3.6-0.1,7.2-0.8,10.8-0.8H900"/>
		<path class="st15" d="M274.6,881c3.6-0.2,7.2-0.4,10.8-0.4c3.6,0,7.2-0.1,10.8-0.1h43.1c3.6,0,7.2,0,10.8-0.1
			c3.6-0.1,7.2-0.2,10.8-0.3c3.6-0.2,7.2-0.5,10.8-0.7c3.6-0.2,7.2-0.2,10.8-0.4c3.6-0.2,7.2-0.5,10.8-0.6c3.6-0.2,7.2-0.2,10.8-0.3
			c3.6-0.1,7.2-0.2,10.8-0.2c3.6,0,7.2-0.1,10.8-0.1h10.7c3.6,0,7.2-0.1,10.8-0.2c3.6-0.1,7.2-0.3,10.8-0.3h10.8
			c3.6,0,7.2-0.1,10.8-0.1h10.8c3.6,0,7.2-1.1,10.8-1.1c3.6,0,7.2,0.1,10.8,0.1c3.6,0,7.2-0.9,10.8-0.9c3.6,0,7.2,0.1,10.8,0.1h10.8
			c3.6,0,7.2-1,10.8-1.3c3.6-0.3,7.2-0.5,10.8-0.5h10.8c3.6,0,7.2,0.1,10.8,0.2c3.6,0.1,7.2,0.1,10.8,0.2c3.6,0.1,7.2,0,10.8,0.1
			c3.6,0.1,7.2,0.7,10.8,0.7H652c3.6,0,7.2-0.3,10.8-0.3s7.2,1.7,10.8,1.7h64.7c3.6,0,7.2,0.7,10.8,0.7h118.6
			c3.6,0,7.2,0.1,10.8,0.1H900"/>
		<path class="st15" d="M156.1,881h10.8c3.6,0,7.2,0,10.8-0.1c3.6-0.1,7.2-0.5,10.8-0.6c3.6-0.1,7.2-0.1,10.8-0.1H210
			c3.6,0,7.2-0.1,10.8-0.3c3.6-0.1,7.2-0.2,10.8-0.4c3.6-0.2,7.2-0.5,10.8-0.7c3.6-0.2,7.2-0.6,10.8-0.8c3.6-0.2,7.2-0.5,10.8-0.6
			c3.6-0.1,7.2-0.2,10.8-0.2h10.8c3.6,0,7.2,0,10.8-0.1c3.6-0.1,7.2-1,10.8-1c3.6,0,7.2,0.4,10.8,0.5c3.6,0.1,7.2,0.2,10.8,0.2
			c3.6,0,7.2-0.7,10.8-1c3.6-0.3,7.2-0.4,10.8-0.5c3.6-0.1,7.2,0,10.8-0.2c3.6-0.2,7.2-1.1,10.8-1.1H458c3.6,0,7.2,1.6,10.8,1.6
			c3.6,0,7.2,0,10.8,0.1c3.6,0.1,7.2,0.4,10.8,0.4h75.5c3.6,0,7.2,1.4,10.8,1.4h21.6c3.6,0,7.2,0.1,10.8,0.2
			c3.6,0.1,7.2,0.4,10.8,0.4h10.8c3.6,0,7.2-0.5,10.8-0.5H652c3.6,0,7.2-0.6,10.8-0.6h53.9c3.6,0,7.2,0.8,10.8,0.8H803
			c3.6,0,7.2,0.1,10.8,0.1c3.6,0,7.2,0.1,10.8,0.1h21.6c3.6,0,7.2,0,10.8,0.1l10.8,0.1l10.8,0.1c3.6,0,7.2,0.2,10.8,0.2h10.8"/>
		<path class="st14" d="M641.3,881l10.8-0.1l10.8-0.1l10.8-0.1l10.8-0.1l10.8-0.1l10.8-0.1l10.8-0.1l10.8-0.1l10.8-0.1l10.8-0.1
			l10.8-0.1l10.8-0.1l10.8-0.1l10.8-0.1l10.8-0.1l10.8-0.1l10.8-0.1l10.8-0.1c3.6,0,7.2-0.1,10.8-0.1c3.6,0,7.2-0.1,10.8-0.1h10.8
			c3.6,0,7.2-0.1,10.8-0.1s7.2-0.1,10.8-0.1H900"/>
		<path class="st14" d="M641.3,881l10.8-0.1l10.8-0.1l10.8-0.1l10.8-0.1l10.8-0.1l10.8-0.1l10.8-0.1l10.8-0.1l10.8-0.1l10.8-0.1
			l10.8-0.1l10.8-0.1l10.8-0.1l10.8-0.1c3.6,0,7.2-0.1,10.8-0.1s7.2,0.1,10.8,0.1c3.6,0,7.2-0.1,10.8-0.1l10.8-0.1l10.8-0.1
			c3.6,0,7.2-0.1,10.8-0.1h10.8c3.6,0,7.2-0.1,10.8-0.1c3.6,0,7.2-0.1,10.8-0.1H900"/>
		<path class="st15" d="M307,881h10.8h10.8h10.8h10.8h10.8h10.8h10.8h10.8H404h10.8h10.8h10.8h10.8H458h10.8h10.8h10.8h10.8h10.8
			h10.8h10.8h10.8H555h10.8h10.8h10.8h10.8h10.8h10.8h10.8h10.8H652h10.8h10.8h10.8h10.8h10.8h161.7c3.6,0,7.2-0.1,10.8-0.1H900"/>
		<path class="st15" d="M468.7,881h75.5c3.6,0,7.2,0.1,10.8,0.1h345"/>
	</g>
	<rect x="5.6" y="21.7" class="st1" width="67.1" height="21.4"/>
	<text transform="matrix(1 0 0 1 5.6443 38.6818)" class="st16 st3 st4">Altri</text>
</g>
<g id="Base_permanente">
	<path id="Grafico_x5F_Totale" class="st17" d="M85,881c26.4,0,23.9,0,42.7-4.2c26.4,0,26.4-32.6,52.8-32.6s26.4-248.2,52.8-248.2
		c26.4,0,26.4-241,52.8-241s26.4-9.1,52.8-9.1c26.4,0,26.4-131.6,52.8-131.6s26.4-113.5,52.8-113.5S470.7,0.4,497.1,0.4
		c26.4,0,26.4,103.8,52.8,103.8c26.4,0,26.4,355.4,52.8,355.4c26.4,0,26.4,87.7,52.8,87.7s26.4,104.4,52.8,104.4
		s26.4,71.2,52.8,71.2c26.4,0,26.4,15.8,52.8,15.8c26.4,0,60.3,14.6,86.7,14.6"/>
	<rect x="5.6" y="21.7" class="st1" width="106" height="77.7"/>
	<text transform="matrix(1 0 0 1 5.6438 38.6813)"><tspan x="0" y="0" class="st18 st3 st4">Testate</tspan><tspan x="0" y="26.8" class="st18 st3 st4">nucleari</tspan><tspan x="0" y="53.6" class="st18 st3 st4">globali</tspan></text>
	<rect x="869.7" y="920.7" class="st1" width="30.6" height="11.2"/>
	<text id="_x32_020" transform="matrix(1 0 0 1 873.3278 929.1219)" class="st6 st7 st19">2020</text>
	<path id="Linea_x5F_di_x5F_base" class="st20" d="M82.3,884.2h817.8"/>
	<rect x="82" y="920.7" class="st1" width="30.6" height="11.2"/>
	<text id="_x31_945" transform="matrix(1 0 0 1 81.9842 929.1219)" class="st6 st7 st19">1945</text>
	<rect x="851.3" y="725.4" class="st1" width="49" height="11.2"/>
	<text id="_x31_0.000" transform="matrix(1 0 0 1 858.1584 735.2316)" class="st6 st7 st10">10.000</text>
	<rect x="851.3" y="581.3" class="st1" width="49" height="11.2"/>
	<text id="_x32_0.000" transform="matrix(1 0 0 1 856.9123 591.2008)" class="st6 st7 st10">20.000</text>
	<rect x="851.3" y="297.5" class="st1" width="49" height="11.2"/>
	<text id="_x34_0.000" transform="matrix(1 0 0 1 856.8283 307.4053)" class="st6 st7 st10">40.000</text>
	<rect x="851.3" y="431.2" class="st1" width="49" height="11.2"/>
	<text id="_x33_0.000" transform="matrix(1 0 0 1 856.7726 441.0209)" class="st6 st7 st10">30.000</text>
	<rect x="851" y="152.3" class="st1" width="49" height="11.2"/>
	
		<text id="_x35_0.000_00000072271736331586175470000004010212494396342196_" transform="matrix(1 0 0 1 856.5029 162.1889)" class="st6 st7 st10">50.000</text>
	<rect x="851" y="13.4" class="st1" width="49" height="11.2"/>
	<text id="_x36_3.000" transform="matrix(1 0 0 1 856.6708 23.2133)" class="st6 st7 st10">63.000</text>
	<g id="Pallino_x5F_USA">
		<circle id="Cerchio_x5F_USA" class="st21" cx="131.5" cy="1021.5" r="39.5"/>
		<rect x="92.5" y="1017.1" class="st1" width="78" height="10"/>
		<text id="USA" transform="matrix(1 0 0 1 118.3747 1026.9731)" class="st6 st7 st10">USA</text>
	</g>
	<g id="Pallino_x5F_RU">
		<circle id="Cerchio_x5F_RU" class="st22" cx="223.5" cy="1021.5" r="39"/>
		<rect x="184.5" y="1016.2" class="st1" width="78" height="10"/>
		<text id="RU" transform="matrix(1 0 0 1 214.5401 1026.0511)" class="st6 st7 st10">RU</text>
	</g>
	<g id="Pallini_x5F_Atri_stati">
		<g>
			<path id="Cerchio_x5F_viola" class="st23" d="M353.4,1021.5c0,21.6-17,39-37.9,39c-20.9,0-37.9-17.4-37.9-39
				c0-21.6,17-39,37.9-39C336.4,982.5,353.4,999.9,353.4,1021.5z"/>
			<rect x="278" y="1016.4" class="st1" width="76.4" height="10"/>
			<text id="CI" transform="matrix(1 0 0 1 309.8939 1026.2524)" class="st6 st7 st10">CI</text>
		</g>
		<g>
			<path id="Cerchio_x5F_viola_00000117657750563417664430000004241709874847157378_" class="st23" d="M447.5,1021.5
				c0,21.6-17.2,39-38.5,39c-21.2,0-38.5-17.4-38.5-39c0-21.5,17.2-39,38.5-39C430.3,982.5,447.5,1000,447.5,1021.5z"/>
			<rect x="370.9" y="1016.4" class="st1" width="76.4" height="10"/>
			<text id="GB" transform="matrix(1 0 0 1 399.9129 1026.2524)" class="st6 st7 st10">GB</text>
		</g>
		<g>
			<path id="Cerchio_x5F_viola_00000045617874819158740040000017556541340177156524_" class="st23" d="M539.5,1021.5
				c0,21.6-17.2,39-38.5,39c-21.2,0-38.5-17.4-38.5-39c0-21.5,17.2-39,38.5-39C522.3,982.5,539.5,1000,539.5,1021.5z"/>
			<rect x="462.9" y="1016.4" class="st1" width="76.4" height="10"/>
			<text id="FR" transform="matrix(1 0 0 1 493.019 1026.2524)" class="st6 st7 st10">FR</text>
		</g>
		<g>
			<path id="Cerchio_x5F_viola_00000116933123901063100850000014513289939733627825_" class="st23" d="M635.8,1021.5
				c0,21.5-17.7,39-39.5,39c-21.8,0-39.5-17.5-39.5-39c0-21.5,17.7-39,39.5-39C618.1,982.5,635.8,1000,635.8,1021.5z"/>
			<rect x="558.1" y="1016.4" class="st1" width="76.4" height="10"/>
			<text id="IN" transform="matrix(1 0 0 1 589.568 1026.2524)" class="st6 st7 st10">IN</text>
		</g>
		<g>
			<path id="Cerchio_x5F_viola_00000013174683397177988000000004713465616322136474_" class="st23" d="M726.7,1021.5
				c0,21.6-17.2,39-38.5,39c-21.2,0-38.5-17.4-38.5-39c0-21.5,17.2-39,38.5-39C709.5,982.5,726.7,1000,726.7,1021.5z"/>
			<rect x="650.1" y="1016.4" class="st1" width="76.4" height="10"/>
			<text id="IL" transform="matrix(1 0 0 1 682.7024 1026.2524)" class="st6 st7 st10">IL</text>
		</g>
		<g>
			<path id="Cerchio_x5F_viola_00000054962611243359778170000003636155792831429558_" class="st23" d="M818.7,1021.5
				c0,21.6-17.2,39-38.5,39s-38.5-17.4-38.5-39c0-21.5,17.2-39,38.5-39S818.7,1000,818.7,1021.5z"/>
			<rect x="742.9" y="1016.4" class="st1" width="76.4" height="10"/>
			<text id="PK" transform="matrix(1 0 0 1 772.828 1026.2524)" class="st6 st7 st10">PK</text>
		</g>
		<g>
			<path id="Cerchio_x5F_viola_00000052101437346080439810000018250074093706158270_" class="st23" d="M910.7,1021.5
				c0,21.6-17.2,39-38.5,39c-21.2,0-38.5-17.4-38.5-39c0-21.5,17.2-39,38.5-39C893.5,982.5,910.7,1000,910.7,1021.5z"/>
			<rect x="834.3" y="1016.4" class="st1" width="76.4" height="10"/>
			<text id="KP" transform="matrix(1 0 0 1 864.2824 1026.2524)" class="st6 st7 st10">KP</text>
		</g>
	</g>
</g>
</svg>
